%TF.GenerationSoftware,KiCad,Pcbnew,9.0.4*%
%TF.CreationDate,2026-01-26T21:10:16+09:00*%
%TF.ProjectId,BLE_LED_Dongle,424c455f-4c45-4445-9f44-6f6e676c652e,rev?*%
%TF.SameCoordinates,Original*%
%TF.FileFunction,Soldermask,Top*%
%TF.FilePolarity,Negative*%
%FSLAX46Y46*%
G04 Gerber Fmt 4.6, Leading zero omitted, Abs format (unit mm)*
G04 Created by KiCad (PCBNEW 9.0.4) date 2026-01-26 21:10:16*
%MOMM*%
%LPD*%
G01*
G04 APERTURE LIST*
G04 Aperture macros list*
%AMRoundRect*
0 Rectangle with rounded corners*
0 $1 Rounding radius*
0 $2 $3 $4 $5 $6 $7 $8 $9 X,Y pos of 4 corners*
0 Add a 4 corners polygon primitive as box body*
4,1,4,$2,$3,$4,$5,$6,$7,$8,$9,$2,$3,0*
0 Add four circle primitives for the rounded corners*
1,1,$1+$1,$2,$3*
1,1,$1+$1,$4,$5*
1,1,$1+$1,$6,$7*
1,1,$1+$1,$8,$9*
0 Add four rect primitives between the rounded corners*
20,1,$1+$1,$2,$3,$4,$5,0*
20,1,$1+$1,$4,$5,$6,$7,0*
20,1,$1+$1,$6,$7,$8,$9,0*
20,1,$1+$1,$8,$9,$2,$3,0*%
G04 Aperture macros list end*
%ADD10C,4.000000*%
%ADD11R,0.670001X0.299999*%
%ADD12R,1.700000X1.700000*%
%ADD13C,1.700000*%
%ADD14R,0.700000X0.700000*%
%ADD15RoundRect,0.140000X-0.170000X0.140000X-0.170000X-0.140000X0.170000X-0.140000X0.170000X0.140000X0*%
%ADD16RoundRect,0.147500X-0.147500X-0.172500X0.147500X-0.172500X0.147500X0.172500X-0.147500X0.172500X0*%
%ADD17RoundRect,0.200000X0.200000X0.275000X-0.200000X0.275000X-0.200000X-0.275000X0.200000X-0.275000X0*%
%ADD18RoundRect,0.140000X0.170000X-0.140000X0.170000X0.140000X-0.170000X0.140000X-0.170000X-0.140000X0*%
%ADD19RoundRect,0.140000X0.140000X0.170000X-0.140000X0.170000X-0.140000X-0.170000X0.140000X-0.170000X0*%
%ADD20RoundRect,0.140000X-0.140000X-0.170000X0.140000X-0.170000X0.140000X0.170000X-0.140000X0.170000X0*%
%ADD21R,1.500000X2.400000*%
%ADD22RoundRect,0.200000X-0.200000X-0.275000X0.200000X-0.275000X0.200000X0.275000X-0.200000X0.275000X0*%
%ADD23R,1.800000X1.000000*%
%ADD24RoundRect,0.150000X0.150000X-0.512500X0.150000X0.512500X-0.150000X0.512500X-0.150000X-0.512500X0*%
%ADD25RoundRect,0.250000X-0.350000X-0.625000X0.350000X-0.625000X0.350000X0.625000X-0.350000X0.625000X0*%
%ADD26O,1.200000X1.750000*%
%ADD27RoundRect,0.175000X-0.425000X0.175000X-0.425000X-0.175000X0.425000X-0.175000X0.425000X0.175000X0*%
%ADD28RoundRect,0.190000X0.410000X-0.190000X0.410000X0.190000X-0.410000X0.190000X-0.410000X-0.190000X0*%
%ADD29RoundRect,0.200000X0.400000X-0.200000X0.400000X0.200000X-0.400000X0.200000X-0.400000X-0.200000X0*%
%ADD30RoundRect,0.175000X0.425000X-0.175000X0.425000X0.175000X-0.425000X0.175000X-0.425000X-0.175000X0*%
%ADD31RoundRect,0.190000X-0.410000X0.190000X-0.410000X-0.190000X0.410000X-0.190000X0.410000X0.190000X0*%
%ADD32RoundRect,0.200000X-0.400000X0.200000X-0.400000X-0.200000X0.400000X-0.200000X0.400000X0.200000X0*%
%ADD33O,1.700000X1.100000*%
%ADD34RoundRect,0.218750X-0.218750X-0.256250X0.218750X-0.256250X0.218750X0.256250X-0.218750X0.256250X0*%
%ADD35RoundRect,0.250000X-0.650000X0.325000X-0.650000X-0.325000X0.650000X-0.325000X0.650000X0.325000X0*%
%ADD36RoundRect,0.250000X0.325000X0.650000X-0.325000X0.650000X-0.325000X-0.650000X0.325000X-0.650000X0*%
%ADD37RoundRect,0.200000X-0.275000X0.200000X-0.275000X-0.200000X0.275000X-0.200000X0.275000X0.200000X0*%
%ADD38RoundRect,0.200000X-0.200000X0.250000X-0.200000X-0.250000X0.200000X-0.250000X0.200000X0.250000X0*%
%ADD39RoundRect,0.062500X0.337500X0.062500X-0.337500X0.062500X-0.337500X-0.062500X0.337500X-0.062500X0*%
%ADD40RoundRect,0.062500X0.062500X0.337500X-0.062500X0.337500X-0.062500X-0.337500X0.062500X-0.337500X0*%
%ADD41R,3.600000X3.600000*%
%ADD42RoundRect,0.150000X0.825000X0.150000X-0.825000X0.150000X-0.825000X-0.150000X0.825000X-0.150000X0*%
%ADD43R,2.410000X3.300000*%
%ADD44C,1.320800*%
%ADD45C,1.752600*%
G04 APERTURE END LIST*
D10*
%TO.C,REF\u002A\u002A*%
X186000000Y-76000000D03*
%TD*%
%TO.C,REF\u002A\u002A*%
X186000000Y-23000000D03*
%TD*%
%TO.C,REF\u002A\u002A*%
X96000000Y-76000000D03*
%TD*%
%TO.C,REF\u002A\u002A*%
X96000000Y-23000000D03*
%TD*%
D11*
%TO.C,U2*%
X108839188Y-44446798D03*
X108839188Y-44946797D03*
X108839188Y-45446799D03*
X110319190Y-45446799D03*
X110319190Y-44946797D03*
X110319190Y-44446798D03*
%TD*%
D12*
%TO.C,J2*%
X129391189Y-76950800D03*
D13*
X129391189Y-74410800D03*
X131931189Y-76950800D03*
X131931189Y-74410800D03*
X134471189Y-76950800D03*
X134471189Y-74410800D03*
X137011189Y-76950800D03*
X137011189Y-74410800D03*
X139551189Y-76950800D03*
X139551189Y-74410800D03*
X142091189Y-76950800D03*
X142091189Y-74410800D03*
X144631189Y-76950800D03*
X144631189Y-74410800D03*
X147171189Y-76950800D03*
X147171189Y-74410800D03*
%TD*%
D14*
%TO.C,D36*%
X138942189Y-68892800D03*
X138942189Y-67792800D03*
X137112189Y-67792800D03*
X137112189Y-68892800D03*
%TD*%
%TO.C,D11*%
X129798189Y-65302800D03*
X129798189Y-64202800D03*
X127968189Y-64202800D03*
X127968189Y-65302800D03*
%TD*%
%TO.C,D107*%
X166374189Y-65342800D03*
X166374189Y-64242800D03*
X164544189Y-64242800D03*
X164544189Y-65342800D03*
%TD*%
%TO.C,D120*%
X170946189Y-68892800D03*
X170946189Y-67792800D03*
X169116189Y-67792800D03*
X169116189Y-68892800D03*
%TD*%
%TO.C,D70*%
X152658189Y-61792800D03*
X152658189Y-60692800D03*
X150828189Y-60692800D03*
X150828189Y-61792800D03*
%TD*%
%TO.C,D119*%
X170946189Y-65342800D03*
X170946189Y-64242800D03*
X169116189Y-64242800D03*
X169116189Y-65342800D03*
%TD*%
%TO.C,D84*%
X157230189Y-68892800D03*
X157230189Y-67792800D03*
X155400189Y-67792800D03*
X155400189Y-68892800D03*
%TD*%
%TO.C,D142*%
X180090189Y-61792800D03*
X180090189Y-60692800D03*
X178260189Y-60692800D03*
X178260189Y-61792800D03*
%TD*%
%TO.C,D58*%
X148086189Y-61792800D03*
X148086189Y-60692800D03*
X146256189Y-60692800D03*
X146256189Y-61792800D03*
%TD*%
%TO.C,D46*%
X143514189Y-61798800D03*
X143514189Y-60698800D03*
X141684189Y-60698800D03*
X141684189Y-61798800D03*
%TD*%
%TO.C,D72*%
X152658189Y-68892800D03*
X152658189Y-67792800D03*
X150828189Y-67792800D03*
X150828189Y-68892800D03*
%TD*%
%TO.C,D82*%
X157230189Y-61792800D03*
X157230189Y-60692800D03*
X155400189Y-60692800D03*
X155400189Y-61792800D03*
%TD*%
%TO.C,D130*%
X175518189Y-61792800D03*
X175518189Y-60692800D03*
X173688189Y-60692800D03*
X173688189Y-61792800D03*
%TD*%
%TO.C,D10*%
X129798189Y-61752800D03*
X129798189Y-60652800D03*
X127968189Y-60652800D03*
X127968189Y-61752800D03*
%TD*%
%TO.C,D95*%
X161802189Y-65342800D03*
X161802189Y-64242800D03*
X159972189Y-64242800D03*
X159972189Y-65342800D03*
%TD*%
%TO.C,D132*%
X175518189Y-68892800D03*
X175518189Y-67792800D03*
X173688189Y-67792800D03*
X173688189Y-68892800D03*
%TD*%
%TO.C,D71*%
X152658189Y-65342800D03*
X152658189Y-64242800D03*
X150828189Y-64242800D03*
X150828189Y-65342800D03*
%TD*%
%TO.C,D108*%
X166374189Y-68892800D03*
X166374189Y-67792800D03*
X164544189Y-67792800D03*
X164544189Y-68892800D03*
%TD*%
%TO.C,D23*%
X134370189Y-65342800D03*
X134370189Y-64242800D03*
X132540189Y-64242800D03*
X132540189Y-65342800D03*
%TD*%
%TO.C,D22*%
X134370189Y-61792800D03*
X134370189Y-60692800D03*
X132540189Y-60692800D03*
X132540189Y-61792800D03*
%TD*%
%TO.C,D35*%
X138942189Y-65342800D03*
X138942189Y-64242800D03*
X137112189Y-64242800D03*
X137112189Y-65342800D03*
%TD*%
%TO.C,D118*%
X170946189Y-61792800D03*
X170946189Y-60692800D03*
X169116189Y-60692800D03*
X169116189Y-61792800D03*
%TD*%
%TO.C,D9*%
X127968189Y-58156800D03*
X127968189Y-57056800D03*
X129798189Y-57056800D03*
X129798189Y-58156800D03*
%TD*%
%TO.C,D12*%
X129798189Y-68852800D03*
X129798189Y-67752800D03*
X127968189Y-67752800D03*
X127968189Y-68852800D03*
%TD*%
%TO.C,D48*%
X143514189Y-68898800D03*
X143514189Y-67798800D03*
X141684189Y-67798800D03*
X141684189Y-68898800D03*
%TD*%
%TO.C,D34*%
X138942189Y-61792800D03*
X138942189Y-60692800D03*
X137112189Y-60692800D03*
X137112189Y-61792800D03*
%TD*%
%TO.C,D83*%
X157230189Y-65342800D03*
X157230189Y-64242800D03*
X155400189Y-64242800D03*
X155400189Y-65342800D03*
%TD*%
%TO.C,D94*%
X161802189Y-61792800D03*
X161802189Y-60692800D03*
X159972189Y-60692800D03*
X159972189Y-61792800D03*
%TD*%
%TO.C,D96*%
X161802189Y-68892800D03*
X161802189Y-67792800D03*
X159972189Y-67792800D03*
X159972189Y-68892800D03*
%TD*%
%TO.C,D60*%
X148086189Y-68892800D03*
X148086189Y-67792800D03*
X146256189Y-67792800D03*
X146256189Y-68892800D03*
%TD*%
%TO.C,D47*%
X143514189Y-65348800D03*
X143514189Y-64248800D03*
X141684189Y-64248800D03*
X141684189Y-65348800D03*
%TD*%
%TO.C,D131*%
X175518189Y-65342800D03*
X175518189Y-64242800D03*
X173688189Y-64242800D03*
X173688189Y-65342800D03*
%TD*%
%TO.C,D59*%
X148086189Y-65342800D03*
X148086189Y-64242800D03*
X146256189Y-64242800D03*
X146256189Y-65342800D03*
%TD*%
%TO.C,D106*%
X166374189Y-61792800D03*
X166374189Y-60692800D03*
X164544189Y-60692800D03*
X164544189Y-61792800D03*
%TD*%
%TO.C,D24*%
X134370189Y-68892800D03*
X134370189Y-67792800D03*
X132540189Y-67792800D03*
X132540189Y-68892800D03*
%TD*%
%TO.C,D143*%
X180090189Y-65342800D03*
X180090189Y-64242800D03*
X178260189Y-64242800D03*
X178260189Y-65342800D03*
%TD*%
%TO.C,D144*%
X180090189Y-68892800D03*
X180090189Y-67792800D03*
X178260189Y-67792800D03*
X178260189Y-68892800D03*
%TD*%
%TO.C,D8*%
X129798189Y-54606800D03*
X129798189Y-53506800D03*
X127968189Y-53506800D03*
X127968189Y-54606800D03*
%TD*%
D15*
%TO.C,C3*%
X117453189Y-63897800D03*
X117453189Y-64857800D03*
%TD*%
D14*
%TO.C,D114*%
X170946189Y-47528800D03*
X170946189Y-46428800D03*
X169116189Y-46428800D03*
X169116189Y-47528800D03*
%TD*%
%TO.C,D42*%
X143514189Y-47528800D03*
X143514189Y-46428800D03*
X141684189Y-46428800D03*
X141684189Y-47528800D03*
%TD*%
%TO.C,D133*%
X180090189Y-29760800D03*
X180090189Y-28660800D03*
X178260189Y-28660800D03*
X178260189Y-29760800D03*
%TD*%
%TO.C,D54*%
X148086189Y-47528800D03*
X148086189Y-46428800D03*
X146256189Y-46428800D03*
X146256189Y-47528800D03*
%TD*%
D15*
%TO.C,C9*%
X105007189Y-70374800D03*
X105007189Y-71334800D03*
%TD*%
D14*
%TO.C,D40*%
X143514189Y-40428800D03*
X143514189Y-39328800D03*
X141684189Y-39328800D03*
X141684189Y-40428800D03*
%TD*%
%TO.C,D43*%
X143514189Y-51102800D03*
X143514189Y-50002800D03*
X141684189Y-50002800D03*
X141684189Y-51102800D03*
%TD*%
%TO.C,D113*%
X170946189Y-43978800D03*
X170946189Y-42878800D03*
X169116189Y-42878800D03*
X169116189Y-43978800D03*
%TD*%
%TO.C,D5*%
X129798189Y-43938800D03*
X129798189Y-42838800D03*
X127968189Y-42838800D03*
X127968189Y-43938800D03*
%TD*%
%TO.C,D69*%
X152658189Y-58196800D03*
X152658189Y-57096800D03*
X150828189Y-57096800D03*
X150828189Y-58196800D03*
%TD*%
%TO.C,D31*%
X138942189Y-51096800D03*
X138942189Y-49996800D03*
X137112189Y-49996800D03*
X137112189Y-51096800D03*
%TD*%
%TO.C,D112*%
X170946189Y-40428800D03*
X170946189Y-39328800D03*
X169116189Y-39328800D03*
X169116189Y-40428800D03*
%TD*%
%TO.C,D39*%
X143514189Y-36860800D03*
X143514189Y-35760800D03*
X141684189Y-35760800D03*
X141684189Y-36860800D03*
%TD*%
%TO.C,D135*%
X180090189Y-36860800D03*
X180090189Y-35760800D03*
X178260189Y-35760800D03*
X178260189Y-36860800D03*
%TD*%
%TO.C,D18*%
X134370189Y-47528800D03*
X134370189Y-46428800D03*
X132540189Y-46428800D03*
X132540189Y-47528800D03*
%TD*%
%TO.C,D15*%
X134370189Y-36860800D03*
X134370189Y-35760800D03*
X132540189Y-35760800D03*
X132540189Y-36860800D03*
%TD*%
%TO.C,D14*%
X134370189Y-33310800D03*
X134370189Y-32210800D03*
X132540189Y-32210800D03*
X132540189Y-33310800D03*
%TD*%
D15*
%TO.C,C2*%
X105515189Y-74438800D03*
X105515189Y-75398800D03*
%TD*%
D14*
%TO.C,D98*%
X166374189Y-33310800D03*
X166374189Y-32210800D03*
X164544189Y-32210800D03*
X164544189Y-33310800D03*
%TD*%
%TO.C,D103*%
X166374189Y-51096800D03*
X166374189Y-49996800D03*
X164544189Y-49996800D03*
X164544189Y-51096800D03*
%TD*%
%TO.C,D115*%
X170946189Y-51096800D03*
X170946189Y-49996800D03*
X169116189Y-49996800D03*
X169116189Y-51096800D03*
%TD*%
D16*
%TO.C,L1*%
X100458189Y-65266800D03*
X101428189Y-65266800D03*
%TD*%
D14*
%TO.C,D26*%
X138942189Y-33310800D03*
X138942189Y-32210800D03*
X137112189Y-32210800D03*
X137112189Y-33310800D03*
%TD*%
D15*
%TO.C,C11*%
X103483189Y-65294800D03*
X103483189Y-66254800D03*
%TD*%
D14*
%TO.C,D77*%
X157230189Y-43978800D03*
X157230189Y-42878800D03*
X155400189Y-42878800D03*
X155400189Y-43978800D03*
%TD*%
%TO.C,D124*%
X175518189Y-40428800D03*
X175518189Y-39328800D03*
X173688189Y-39328800D03*
X173688189Y-40428800D03*
%TD*%
%TO.C,D66*%
X152658189Y-47528800D03*
X152658189Y-46428800D03*
X150828189Y-46428800D03*
X150828189Y-47528800D03*
%TD*%
D17*
%TO.C,R5*%
X106820189Y-44946800D03*
X105170189Y-44946800D03*
%TD*%
D14*
%TO.C,D99*%
X166374189Y-36860800D03*
X166374189Y-35760800D03*
X164544189Y-35760800D03*
X164544189Y-36860800D03*
%TD*%
%TO.C,D44*%
X143514189Y-54652800D03*
X143514189Y-53552800D03*
X141684189Y-53552800D03*
X141684189Y-54652800D03*
%TD*%
%TO.C,D61*%
X152658189Y-29760800D03*
X152658189Y-28660800D03*
X150828189Y-28660800D03*
X150828189Y-29760800D03*
%TD*%
D15*
%TO.C,C15*%
X115167189Y-57674800D03*
X115167189Y-58634800D03*
%TD*%
D18*
%TO.C,C8*%
X109579189Y-62190800D03*
X109579189Y-61230800D03*
%TD*%
D19*
%TO.C,C6*%
X103455189Y-67298800D03*
X102495189Y-67298800D03*
%TD*%
D14*
%TO.C,D37*%
X143514189Y-29760800D03*
X143514189Y-28660800D03*
X141684189Y-28660800D03*
X141684189Y-29760800D03*
%TD*%
D20*
%TO.C,C14*%
X117735189Y-42914800D03*
X118695189Y-42914800D03*
%TD*%
D14*
%TO.C,D125*%
X175518189Y-43978800D03*
X175518189Y-42878800D03*
X173688189Y-42878800D03*
X173688189Y-43978800D03*
%TD*%
%TO.C,D57*%
X148086189Y-58196800D03*
X148086189Y-57096800D03*
X146256189Y-57096800D03*
X146256189Y-58196800D03*
%TD*%
D21*
%TO.C,L2*%
X108861189Y-50026800D03*
X114361189Y-50026800D03*
%TD*%
D22*
%TO.C,R7*%
X103674189Y-27166800D03*
X105324189Y-27166800D03*
%TD*%
D15*
%TO.C,C10*%
X109579189Y-70374800D03*
X109579189Y-71334800D03*
%TD*%
D14*
%TO.C,D85*%
X161802189Y-29760800D03*
X161802189Y-28660800D03*
X159972189Y-28660800D03*
X159972189Y-29760800D03*
%TD*%
%TO.C,D91*%
X161802189Y-51096800D03*
X161802189Y-49996800D03*
X159972189Y-49996800D03*
X159972189Y-51096800D03*
%TD*%
%TO.C,D134*%
X180090189Y-33310800D03*
X180090189Y-32210800D03*
X178260189Y-32210800D03*
X178260189Y-33310800D03*
%TD*%
%TO.C,D3*%
X129798189Y-36820800D03*
X129798189Y-35720800D03*
X127968189Y-35720800D03*
X127968189Y-36820800D03*
%TD*%
D23*
%TO.C,Y1*%
X115421189Y-64143800D03*
X115421189Y-66643800D03*
%TD*%
D14*
%TO.C,D50*%
X148086189Y-33310800D03*
X148086189Y-32210800D03*
X146256189Y-32210800D03*
X146256189Y-33310800D03*
%TD*%
%TO.C,D6*%
X129798189Y-47488800D03*
X129798189Y-46388800D03*
X127968189Y-46388800D03*
X127968189Y-47488800D03*
%TD*%
%TO.C,D76*%
X157230189Y-40428800D03*
X157230189Y-39328800D03*
X155400189Y-39328800D03*
X155400189Y-40428800D03*
%TD*%
%TO.C,D74*%
X157230189Y-33310800D03*
X157230189Y-32210800D03*
X155400189Y-32210800D03*
X155400189Y-33310800D03*
%TD*%
D24*
%TO.C,U4*%
X108121189Y-58276300D03*
X110021189Y-58276300D03*
X109071189Y-56001300D03*
%TD*%
D14*
%TO.C,D1*%
X129798189Y-29720800D03*
X129798189Y-28620800D03*
X127968189Y-28620800D03*
X127968189Y-29720800D03*
%TD*%
%TO.C,D89*%
X161802189Y-43978800D03*
X161802189Y-42878800D03*
X159972189Y-42878800D03*
X159972189Y-43978800D03*
%TD*%
%TO.C,D109*%
X170946189Y-29760800D03*
X170946189Y-28660800D03*
X169116189Y-28660800D03*
X169116189Y-29760800D03*
%TD*%
D25*
%TO.C,BT1*%
X98657189Y-40501800D03*
D26*
X100657189Y-40501800D03*
%TD*%
D14*
%TO.C,D78*%
X157230189Y-47528800D03*
X157230189Y-46428800D03*
X155400189Y-46428800D03*
X155400189Y-47528800D03*
%TD*%
D27*
%TO.C,J3*%
X98435189Y-30730800D03*
D28*
X98435189Y-32750800D03*
D29*
X98435189Y-33980800D03*
D30*
X98435189Y-31730800D03*
D31*
X98435189Y-29710800D03*
D32*
X98435189Y-28480800D03*
D33*
X98355189Y-26910800D03*
X94555189Y-26910800D03*
X98355189Y-35550800D03*
X94555189Y-35550800D03*
%TD*%
D14*
%TO.C,D16*%
X134370189Y-40428800D03*
X134370189Y-39328800D03*
X132540189Y-39328800D03*
X132540189Y-40428800D03*
%TD*%
D17*
%TO.C,R3*%
X105324189Y-32246800D03*
X103674189Y-32246800D03*
%TD*%
D14*
%TO.C,D136*%
X180090189Y-40428800D03*
X180090189Y-39328800D03*
X178260189Y-39328800D03*
X178260189Y-40428800D03*
%TD*%
%TO.C,D92*%
X161802189Y-54646800D03*
X161802189Y-53546800D03*
X159972189Y-53546800D03*
X159972189Y-54646800D03*
%TD*%
%TO.C,D80*%
X157230189Y-54652800D03*
X157230189Y-53552800D03*
X155400189Y-53552800D03*
X155400189Y-54652800D03*
%TD*%
%TO.C,D105*%
X166374189Y-58196800D03*
X166374189Y-57096800D03*
X164544189Y-57096800D03*
X164544189Y-58196800D03*
%TD*%
%TO.C,D88*%
X161802189Y-40428800D03*
X161802189Y-39328800D03*
X159972189Y-39328800D03*
X159972189Y-40428800D03*
%TD*%
D20*
%TO.C,C5*%
X111639189Y-68314800D03*
X112599189Y-68314800D03*
%TD*%
D15*
%TO.C,C7*%
X108563189Y-70374800D03*
X108563189Y-71334800D03*
%TD*%
D17*
%TO.C,R1*%
X110912189Y-42914800D03*
X109262189Y-42914800D03*
%TD*%
D14*
%TO.C,D127*%
X175518189Y-51096800D03*
X175518189Y-49996800D03*
X173688189Y-49996800D03*
X173688189Y-51096800D03*
%TD*%
%TO.C,D111*%
X170946189Y-36860800D03*
X170946189Y-35760800D03*
X169116189Y-35760800D03*
X169116189Y-36860800D03*
%TD*%
%TO.C,D75*%
X157230189Y-36860800D03*
X157230189Y-35760800D03*
X155400189Y-35760800D03*
X155400189Y-36860800D03*
%TD*%
%TO.C,D123*%
X175518189Y-36860800D03*
X175518189Y-35760800D03*
X173688189Y-35760800D03*
X173688189Y-36860800D03*
%TD*%
D20*
%TO.C,C12*%
X105515189Y-46470800D03*
X106475189Y-46470800D03*
%TD*%
D14*
%TO.C,D4*%
X129798189Y-40388800D03*
X129798189Y-39288800D03*
X127968189Y-39288800D03*
X127968189Y-40388800D03*
%TD*%
%TO.C,D141*%
X180090189Y-58196800D03*
X180090189Y-57096800D03*
X178260189Y-57096800D03*
X178260189Y-58196800D03*
%TD*%
%TO.C,D33*%
X138942189Y-58196800D03*
X138942189Y-57096800D03*
X137112189Y-57096800D03*
X137112189Y-58196800D03*
%TD*%
D17*
%TO.C,R4*%
X113960189Y-42914800D03*
X112310189Y-42914800D03*
%TD*%
D14*
%TO.C,D19*%
X134370189Y-51056800D03*
X134370189Y-49956800D03*
X132540189Y-49956800D03*
X132540189Y-51056800D03*
%TD*%
%TO.C,D126*%
X175518189Y-47528800D03*
X175518189Y-46428800D03*
X173688189Y-46428800D03*
X173688189Y-47528800D03*
%TD*%
D34*
%TO.C,D146*%
X110315689Y-27166800D03*
X111890689Y-27166800D03*
%TD*%
D14*
%TO.C,D138*%
X180090189Y-47528800D03*
X180090189Y-46428800D03*
X178260189Y-46428800D03*
X178260189Y-47528800D03*
%TD*%
%TO.C,D62*%
X152658189Y-33310800D03*
X152658189Y-32210800D03*
X150828189Y-32210800D03*
X150828189Y-33310800D03*
%TD*%
%TO.C,D137*%
X180090189Y-43978800D03*
X180090189Y-42878800D03*
X178260189Y-42878800D03*
X178260189Y-43978800D03*
%TD*%
%TO.C,D2*%
X129798189Y-33270800D03*
X129798189Y-32170800D03*
X127968189Y-32170800D03*
X127968189Y-33270800D03*
%TD*%
%TO.C,D29*%
X138942189Y-43978800D03*
X138942189Y-42878800D03*
X137112189Y-42878800D03*
X137112189Y-43978800D03*
%TD*%
%TO.C,D13*%
X134370189Y-29760800D03*
X134370189Y-28660800D03*
X132540189Y-28660800D03*
X132540189Y-29760800D03*
%TD*%
%TO.C,D100*%
X166374189Y-40428800D03*
X166374189Y-39328800D03*
X164544189Y-39328800D03*
X164544189Y-40428800D03*
%TD*%
%TO.C,D41*%
X143514189Y-43978800D03*
X143514189Y-42878800D03*
X141684189Y-42878800D03*
X141684189Y-43978800D03*
%TD*%
%TO.C,D87*%
X161802189Y-36860800D03*
X161802189Y-35760800D03*
X159972189Y-35760800D03*
X159972189Y-36860800D03*
%TD*%
%TO.C,D67*%
X152658189Y-51096800D03*
X152658189Y-49996800D03*
X150828189Y-49996800D03*
X150828189Y-51096800D03*
%TD*%
%TO.C,D17*%
X134370189Y-43978800D03*
X134370189Y-42878800D03*
X132540189Y-42878800D03*
X132540189Y-43978800D03*
%TD*%
%TO.C,D97*%
X166374189Y-29760800D03*
X166374189Y-28660800D03*
X164544189Y-28660800D03*
X164544189Y-29760800D03*
%TD*%
D35*
%TO.C,C16*%
X112627189Y-55663800D03*
X112627189Y-58613800D03*
%TD*%
D34*
%TO.C,D145*%
X110315689Y-28690800D03*
X111890689Y-28690800D03*
%TD*%
D18*
%TO.C,C4*%
X117453189Y-66889800D03*
X117453189Y-65929800D03*
%TD*%
D14*
%TO.C,D140*%
X180090189Y-54646800D03*
X180090189Y-53546800D03*
X178260189Y-53546800D03*
X178260189Y-54646800D03*
%TD*%
D19*
%TO.C,C13*%
X110567189Y-41390800D03*
X109607189Y-41390800D03*
%TD*%
D14*
%TO.C,D7*%
X129798189Y-51056800D03*
X129798189Y-49956800D03*
X127968189Y-49956800D03*
X127968189Y-51056800D03*
%TD*%
D36*
%TO.C,C17*%
X108084189Y-39866800D03*
X105134189Y-39866800D03*
%TD*%
D37*
%TO.C,R10*%
X118723189Y-35993800D03*
X118723189Y-37643800D03*
%TD*%
D14*
%TO.C,D45*%
X143514189Y-58202800D03*
X143514189Y-57102800D03*
X141684189Y-57102800D03*
X141684189Y-58202800D03*
%TD*%
%TO.C,D117*%
X170946189Y-58196800D03*
X170946189Y-57096800D03*
X169116189Y-57096800D03*
X169116189Y-58196800D03*
%TD*%
%TO.C,D79*%
X157230189Y-51102800D03*
X157230189Y-50002800D03*
X155400189Y-50002800D03*
X155400189Y-51102800D03*
%TD*%
%TO.C,D21*%
X134370189Y-58156800D03*
X134370189Y-57056800D03*
X132540189Y-57056800D03*
X132540189Y-58156800D03*
%TD*%
%TO.C,D122*%
X175518189Y-33310800D03*
X175518189Y-32210800D03*
X173688189Y-32210800D03*
X173688189Y-33310800D03*
%TD*%
%TO.C,D68*%
X152658189Y-54646800D03*
X152658189Y-53546800D03*
X150828189Y-53546800D03*
X150828189Y-54646800D03*
%TD*%
%TO.C,D90*%
X161802189Y-47528800D03*
X161802189Y-46428800D03*
X159972189Y-46428800D03*
X159972189Y-47528800D03*
%TD*%
D15*
%TO.C,C1*%
X101451189Y-74438800D03*
X101451189Y-75398800D03*
%TD*%
D14*
%TO.C,D101*%
X166374189Y-43978800D03*
X166374189Y-42878800D03*
X164544189Y-42878800D03*
X164544189Y-43978800D03*
%TD*%
%TO.C,D53*%
X148086189Y-43978800D03*
X148086189Y-42878800D03*
X146256189Y-42878800D03*
X146256189Y-43978800D03*
%TD*%
%TO.C,D20*%
X134370189Y-54606800D03*
X134370189Y-53506800D03*
X132540189Y-53506800D03*
X132540189Y-54606800D03*
%TD*%
%TO.C,D73*%
X157230189Y-29760800D03*
X157230189Y-28660800D03*
X155400189Y-28660800D03*
X155400189Y-29760800D03*
%TD*%
%TO.C,D128*%
X175518189Y-54646800D03*
X175518189Y-53546800D03*
X173688189Y-53546800D03*
X173688189Y-54646800D03*
%TD*%
%TO.C,D81*%
X157230189Y-58202800D03*
X157230189Y-57102800D03*
X155400189Y-57102800D03*
X155400189Y-58202800D03*
%TD*%
%TO.C,D110*%
X170946189Y-33310800D03*
X170946189Y-32210800D03*
X169116189Y-32210800D03*
X169116189Y-33310800D03*
%TD*%
%TO.C,D30*%
X138942189Y-47528800D03*
X138942189Y-46428800D03*
X137112189Y-46428800D03*
X137112189Y-47528800D03*
%TD*%
%TO.C,D93*%
X161802189Y-58196800D03*
X161802189Y-57096800D03*
X159972189Y-57096800D03*
X159972189Y-58196800D03*
%TD*%
%TO.C,D64*%
X152658189Y-40428800D03*
X152658189Y-39328800D03*
X150828189Y-39328800D03*
X150828189Y-40428800D03*
%TD*%
%TO.C,D86*%
X161802189Y-33310800D03*
X161802189Y-32210800D03*
X159972189Y-32210800D03*
X159972189Y-33310800D03*
%TD*%
D22*
%TO.C,R6*%
X103674189Y-29198800D03*
X105324189Y-29198800D03*
%TD*%
D14*
%TO.C,D63*%
X152658189Y-36860800D03*
X152658189Y-35760800D03*
X150828189Y-35760800D03*
X150828189Y-36860800D03*
%TD*%
%TO.C,D129*%
X175518189Y-58196800D03*
X175518189Y-57096800D03*
X173688189Y-57096800D03*
X173688189Y-58196800D03*
%TD*%
%TO.C,D32*%
X138942189Y-54646800D03*
X138942189Y-53546800D03*
X137112189Y-53546800D03*
X137112189Y-54646800D03*
%TD*%
D17*
%TO.C,R2*%
X105324189Y-34756800D03*
X103674189Y-34756800D03*
%TD*%
D14*
%TO.C,D116*%
X170946189Y-54646800D03*
X170946189Y-53546800D03*
X169116189Y-53546800D03*
X169116189Y-54646800D03*
%TD*%
%TO.C,D28*%
X138942189Y-40428800D03*
X138942189Y-39328800D03*
X137112189Y-39328800D03*
X137112189Y-40428800D03*
%TD*%
%TO.C,D56*%
X148086189Y-54646800D03*
X148086189Y-53546800D03*
X146256189Y-53546800D03*
X146256189Y-54646800D03*
%TD*%
%TO.C,D52*%
X148086189Y-40428800D03*
X148086189Y-39328800D03*
X146256189Y-39328800D03*
X146256189Y-40428800D03*
%TD*%
%TO.C,D25*%
X138942189Y-29760800D03*
X138942189Y-28660800D03*
X137112189Y-28660800D03*
X137112189Y-29760800D03*
%TD*%
%TO.C,D49*%
X148086189Y-29760800D03*
X148086189Y-28660800D03*
X146256189Y-28660800D03*
X146256189Y-29760800D03*
%TD*%
%TO.C,D139*%
X180090189Y-51096800D03*
X180090189Y-49996800D03*
X178260189Y-49996800D03*
X178260189Y-51096800D03*
%TD*%
%TO.C,D102*%
X166374189Y-47528800D03*
X166374189Y-46428800D03*
X164544189Y-46428800D03*
X164544189Y-47528800D03*
%TD*%
%TO.C,D55*%
X148086189Y-51096800D03*
X148086189Y-49996800D03*
X146256189Y-49996800D03*
X146256189Y-51096800D03*
%TD*%
%TO.C,D27*%
X138942189Y-36860800D03*
X138942189Y-35760800D03*
X137112189Y-35760800D03*
X137112189Y-36860800D03*
%TD*%
%TO.C,D38*%
X143514189Y-33310800D03*
X143514189Y-32210800D03*
X141684189Y-32210800D03*
X141684189Y-33310800D03*
%TD*%
D38*
%TO.C,Y2*%
X102933189Y-74726800D03*
X102933189Y-76126800D03*
X104033189Y-76126800D03*
X104033189Y-74726800D03*
%TD*%
D14*
%TO.C,D104*%
X166374189Y-54646800D03*
X166374189Y-53546800D03*
X164544189Y-53546800D03*
X164544189Y-54646800D03*
%TD*%
D39*
%TO.C,U1*%
X109997189Y-68032800D03*
X109997189Y-67532800D03*
X109997189Y-67032800D03*
X109997189Y-66532800D03*
X109997189Y-66032800D03*
X109997189Y-65532800D03*
X109997189Y-65032800D03*
X109997189Y-64532800D03*
D40*
X109297189Y-63832800D03*
X108797189Y-63832800D03*
X108297189Y-63832800D03*
X107797189Y-63832800D03*
X107297189Y-63832800D03*
X106797189Y-63832800D03*
X106297189Y-63832800D03*
X105797189Y-63832800D03*
D39*
X105097189Y-64532800D03*
X105097189Y-65032800D03*
X105097189Y-65532800D03*
X105097189Y-66032800D03*
X105097189Y-66532800D03*
X105097189Y-67032800D03*
X105097189Y-67532800D03*
X105097189Y-68032800D03*
D40*
X105797189Y-68732800D03*
X106297189Y-68732800D03*
X106797189Y-68732800D03*
X107297189Y-68732800D03*
X107797189Y-68732800D03*
X108297189Y-68732800D03*
X108797189Y-68732800D03*
X109297189Y-68732800D03*
D41*
X107547189Y-66282800D03*
%TD*%
D14*
%TO.C,D51*%
X148086189Y-36860800D03*
X148086189Y-35760800D03*
X146256189Y-35760800D03*
X146256189Y-36860800D03*
%TD*%
%TO.C,D65*%
X152658189Y-43978800D03*
X152658189Y-42878800D03*
X150828189Y-42878800D03*
X150828189Y-43978800D03*
%TD*%
%TO.C,D121*%
X175518189Y-29760800D03*
X175518189Y-28660800D03*
X173688189Y-28660800D03*
X173688189Y-29760800D03*
%TD*%
D42*
%TO.C,U3*%
X114086189Y-37707800D03*
X114086189Y-36437800D03*
X114086189Y-35167800D03*
X114086189Y-33897800D03*
X109136189Y-33897800D03*
X109136189Y-35167800D03*
X109136189Y-36437800D03*
X109136189Y-37707800D03*
D43*
X111611189Y-35802800D03*
%TD*%
D12*
%TO.C,J1*%
X122914189Y-69838800D03*
D13*
X120374189Y-69838800D03*
X117834189Y-69838800D03*
X115294189Y-69838800D03*
%TD*%
D44*
%TO.C,SW1*%
X94847189Y-54725800D03*
X94847189Y-56725801D03*
X94847189Y-58725802D03*
D45*
X94847189Y-52625802D03*
X94847189Y-60825800D03*
%TD*%
M02*
