M48
; DRILL file {KiCad 9.0.4} date 2026-01-26T21:10:18+0900
; FORMAT={-:-/ absolute / metric / decimal}
; #@! TF.CreationDate,2026-01-26T21:10:18+09:00
; #@! TF.GenerationSoftware,Kicad,Pcbnew,9.0.4
; #@! TF.FileFunction,Plated,1,2,PTH
FMAT,2
METRIC
; #@! TA.AperFunction,Plated,PTH,ComponentDrill
T1C0.200
; #@! TA.AperFunction,Plated,PTH,ViaDrill
T2C0.300
; #@! TA.AperFunction,Plated,PTH,ComponentDrill
T3C0.600
; #@! TA.AperFunction,Plated,PTH,ComponentDrill
T4C0.750
; #@! TA.AperFunction,Plated,PTH,ComponentDrill
T5C0.813
; #@! TA.AperFunction,Plated,PTH,ComponentDrill
T6C1.000
; #@! TA.AperFunction,Plated,PTH,ComponentDrill
T7C1.245
; #@! TA.AperFunction,Plated,PTH,ComponentDrill
T8C3.000
%
G90
G05
T1
X110.911Y-34.603
X110.911Y-35.803
X110.911Y-37.003
X112.311Y-34.603
X112.311Y-35.803
X112.311Y-37.003
T2
X93.5Y-63.5
X93.5Y-67.0
X98.5Y-63.5
X100.0Y-67.0
X101.6Y-20.574
X101.6Y-76.708
X101.705Y-61.457
X101.854Y-69.342
X101.854Y-72.898
X101.959Y-27.167
X101.959Y-28.691
X102.594Y-61.33
X103.632Y-44.958
X104.372Y-69.839
X104.394Y-36.068
X104.394Y-52.07
X104.648Y-54.864
X104.725Y-46.725
X104.902Y-33.528
X105.007Y-60.441
X105.642Y-61.203
X105.664Y-76.708
X106.172Y-67.564
X106.277Y-60.441
X106.531Y-37.835
X106.912Y-61.203
X107.039Y-36.311
X107.188Y-51.308
X107.547Y-60.568
X108.264Y-61.143
X108.458Y-42.164
X108.5Y-65.5
X108.528Y-62.092
X109.728Y-39.878
X110.236Y-54.356
X110.998Y-46.482
X111.103Y-70.855
X111.964Y-60.314
X112.5Y-69.0
X112.522Y-74.676
X113.284Y-20.828
X115.167Y-60.949
X116.078Y-33.274
X116.078Y-37.846
X116.078Y-40.894
X116.183Y-61.33
X116.586Y-45.72
X118.618Y-64.008
X118.977Y-64.886
X121.666Y-51.816
X122.174Y-42.672
X122.174Y-48.006
X123.444Y-27.432
X124.46Y-42.926
X124.46Y-50.8
X125.73Y-40.132
X125.984Y-65.532
X126.492Y-74.168
X127.105Y-28.691
X130.407Y-68.853
X131.931Y-28.691
X134.979Y-68.823
X136.757Y-28.661
X139.551Y-68.893
X141.075Y-28.691
X143.256Y-72.898
X144.123Y-68.899
X145.647Y-28.661
X148.695Y-68.893
X150.219Y-28.691
X151.13Y-78.486
X153.267Y-68.823
X154.791Y-28.661
X157.839Y-68.893
X158.855Y-28.691
X162.411Y-68.893
X163.935Y-28.661
X166.983Y-68.893
X168.507Y-28.691
X171.555Y-68.823
X173.079Y-28.661
X176.635Y-68.823
X177.905Y-28.691
X180.34Y-20.828
X180.848Y-78.486
T4
X98.657Y-40.502
X100.657Y-40.502
T5
X94.847Y-54.726
X94.847Y-56.726
X94.847Y-58.726
T6
X115.294Y-69.839
X117.834Y-69.839
X120.374Y-69.839
X122.914Y-69.839
X129.391Y-74.411
X129.391Y-76.951
X131.931Y-74.411
X131.931Y-76.951
X134.471Y-74.411
X134.471Y-76.951
X137.011Y-74.411
X137.011Y-76.951
X139.551Y-74.411
X139.551Y-76.951
X142.091Y-74.411
X142.091Y-76.951
X144.631Y-74.411
X144.631Y-76.951
X147.171Y-74.411
X147.171Y-76.951
T7
X94.847Y-52.626
X94.847Y-60.826
T8
X96.0Y-23.0
X96.0Y-76.0
X186.0Y-23.0
X186.0Y-76.0
T3
G00X94.855Y-26.911
M15
G01X94.255Y-26.911
M16
G05
G00X94.855Y-35.551
M15
G01X94.255Y-35.551
M16
G05
G00X98.655Y-26.911
M15
G01X98.055Y-26.911
M16
G05
G00X98.655Y-35.551
M15
G01X98.055Y-35.551
M16
G05
M30
