%TF.GenerationSoftware,KiCad,Pcbnew,9.0.4*%
%TF.CreationDate,2026-01-26T21:10:16+09:00*%
%TF.ProjectId,BLE_LED_Dongle,424c455f-4c45-4445-9f44-6f6e676c652e,rev?*%
%TF.SameCoordinates,Original*%
%TF.FileFunction,Copper,L2,Bot*%
%TF.FilePolarity,Positive*%
%FSLAX46Y46*%
G04 Gerber Fmt 4.6, Leading zero omitted, Abs format (unit mm)*
G04 Created by KiCad (PCBNEW 9.0.4) date 2026-01-26 21:10:16*
%MOMM*%
%LPD*%
G01*
G04 APERTURE LIST*
G04 Aperture macros list*
%AMRoundRect*
0 Rectangle with rounded corners*
0 $1 Rounding radius*
0 $2 $3 $4 $5 $6 $7 $8 $9 X,Y pos of 4 corners*
0 Add a 4 corners polygon primitive as box body*
4,1,4,$2,$3,$4,$5,$6,$7,$8,$9,$2,$3,0*
0 Add four circle primitives for the rounded corners*
1,1,$1+$1,$2,$3*
1,1,$1+$1,$4,$5*
1,1,$1+$1,$6,$7*
1,1,$1+$1,$8,$9*
0 Add four rect primitives between the rounded corners*
20,1,$1+$1,$2,$3,$4,$5,0*
20,1,$1+$1,$4,$5,$6,$7,0*
20,1,$1+$1,$6,$7,$8,$9,0*
20,1,$1+$1,$8,$9,$2,$3,0*%
G04 Aperture macros list end*
%TA.AperFunction,ComponentPad*%
%ADD10C,4.000000*%
%TD*%
%TA.AperFunction,ComponentPad*%
%ADD11R,1.700000X1.700000*%
%TD*%
%TA.AperFunction,ComponentPad*%
%ADD12C,1.700000*%
%TD*%
%TA.AperFunction,ComponentPad*%
%ADD13RoundRect,0.250000X-0.350000X-0.625000X0.350000X-0.625000X0.350000X0.625000X-0.350000X0.625000X0*%
%TD*%
%TA.AperFunction,ComponentPad*%
%ADD14O,1.200000X1.750000*%
%TD*%
%TA.AperFunction,HeatsinkPad*%
%ADD15O,1.700000X1.100000*%
%TD*%
%TA.AperFunction,HeatsinkPad*%
%ADD16C,0.500000*%
%TD*%
%TA.AperFunction,HeatsinkPad*%
%ADD17R,1.900000X2.900000*%
%TD*%
%TA.AperFunction,ComponentPad*%
%ADD18C,1.320800*%
%TD*%
%TA.AperFunction,ComponentPad*%
%ADD19C,1.752600*%
%TD*%
%TA.AperFunction,ViaPad*%
%ADD20C,0.600000*%
%TD*%
%TA.AperFunction,Conductor*%
%ADD21C,0.200000*%
%TD*%
%TA.AperFunction,Conductor*%
%ADD22C,0.500000*%
%TD*%
G04 APERTURE END LIST*
D10*
%TO.P,REF\u002A\u002A,1*%
%TO.N,N/C*%
X186000000Y-76000000D03*
%TD*%
%TO.P,REF\u002A\u002A,1*%
%TO.N,N/C*%
X186000000Y-23000000D03*
%TD*%
%TO.P,REF\u002A\u002A,1*%
%TO.N,N/C*%
X96000000Y-76000000D03*
%TD*%
%TO.P,REF\u002A\u002A,1*%
%TO.N,N/C*%
X96000000Y-23000000D03*
%TD*%
D11*
%TO.P,J2,1,Pin_1*%
%TO.N,Net-(J2-Pin_1)*%
X129391189Y-76950800D03*
D12*
%TO.P,J2,2,Pin_16*%
%TO.N,Net-(J2-Pin_16)*%
X129391189Y-74410800D03*
%TO.P,J2,3,Pin_2*%
%TO.N,/LED_Matrix1/DIN*%
X131931189Y-76950800D03*
%TO.P,J2,4,Pin_15*%
%TO.N,/Power/EN_5V*%
X131931189Y-74410800D03*
%TO.P,J2,5,Pin_3*%
%TO.N,Net-(J2-Pin_3)*%
X134471189Y-76950800D03*
%TO.P,J2,6,Pin_14*%
%TO.N,Net-(J2-Pin_14)*%
X134471189Y-74410800D03*
%TO.P,J2,7,Pin_4*%
%TO.N,Net-(J2-Pin_4)*%
X137011189Y-76950800D03*
%TO.P,J2,8,Pin_13*%
%TO.N,Net-(J2-Pin_13)*%
X137011189Y-74410800D03*
%TO.P,J2,9,Pin_5*%
%TO.N,Net-(J2-Pin_5)*%
X139551189Y-76950800D03*
%TO.P,J2,10,Pin_12*%
%TO.N,Net-(J2-Pin_12)*%
X139551189Y-74410800D03*
%TO.P,J2,11,Pin_6*%
%TO.N,Net-(J2-Pin_6)*%
X142091189Y-76950800D03*
%TO.P,J2,12,Pin_11*%
%TO.N,Net-(J2-Pin_11)*%
X142091189Y-74410800D03*
%TO.P,J2,13,Pin_7*%
%TO.N,Net-(J2-Pin_7)*%
X144631189Y-76950800D03*
%TO.P,J2,14,Pin_10*%
%TO.N,unconnected-(J2-Pin_10-Pad14)*%
X144631189Y-74410800D03*
%TO.P,J2,15,Pin_8*%
%TO.N,Net-(J2-Pin_8)*%
X147171189Y-76950800D03*
%TO.P,J2,16,16*%
%TO.N,Net-(U1-P0.28{slash}AIN4)*%
X147171189Y-74410800D03*
%TD*%
D13*
%TO.P,BT1,1,+*%
%TO.N,Vbat*%
X98657189Y-40501800D03*
D14*
%TO.P,BT1,2,-*%
%TO.N,GND*%
X100657189Y-40501800D03*
%TD*%
D15*
%TO.P,J3,S1,SHIELD*%
%TO.N,GND*%
X98355189Y-26910800D03*
X94555189Y-26910800D03*
X98355189Y-35550800D03*
X94555189Y-35550800D03*
%TD*%
D16*
%TO.P,U3,9,EPAD*%
%TO.N,GND*%
X112311189Y-37002800D03*
X112311189Y-35802800D03*
X112311189Y-34602800D03*
D17*
X111611189Y-35802800D03*
D16*
X110911189Y-37002800D03*
X110911189Y-35802800D03*
X110911189Y-34602800D03*
%TD*%
D11*
%TO.P,J1,1,Pin_1*%
%TO.N,+3.3V*%
X122914189Y-69838800D03*
D12*
%TO.P,J1,2,Pin_2*%
%TO.N,GND*%
X120374189Y-69838800D03*
%TO.P,J1,3,Pin_3*%
%TO.N,Net-(J1-Pin_3)*%
X117834189Y-69838800D03*
%TO.P,J1,4,Pin_4*%
%TO.N,Net-(J1-Pin_4)*%
X115294189Y-69838800D03*
%TD*%
D18*
%TO.P,SW1,1,A*%
%TO.N,Vbat_1*%
X94847189Y-54725800D03*
%TO.P,SW1,2,B*%
%TO.N,Vbat*%
X94847189Y-56725801D03*
%TO.P,SW1,3,C*%
%TO.N,unconnected-(SW1-C-Pad3)*%
X94847189Y-58725802D03*
D19*
%TO.P,SW1,4*%
%TO.N,N/C*%
X94847189Y-52625802D03*
%TO.P,SW1,5*%
X94847189Y-60825800D03*
%TD*%
D20*
%TO.N,GND*%
X118618000Y-64008000D03*
X110998000Y-46482000D03*
X108458000Y-42164000D03*
X180340000Y-20828000D03*
X180848000Y-78486000D03*
X151130000Y-78486000D03*
X143256000Y-72898000D03*
X104394000Y-36068000D03*
X104902000Y-33528000D03*
X125730000Y-40132000D03*
X116078000Y-40894000D03*
X109728000Y-39878000D03*
X124460000Y-50800000D03*
X124460000Y-42926000D03*
X122174000Y-42672000D03*
X122174000Y-48006000D03*
X121666000Y-51816000D03*
X116586000Y-45720000D03*
X110236000Y-54356000D03*
X107188000Y-51308000D03*
X104394000Y-52070000D03*
X104648000Y-54864000D03*
X103632000Y-44958000D03*
X123444000Y-27432000D03*
X113284000Y-20828000D03*
X101600000Y-20574000D03*
X116078000Y-33274000D03*
X116078000Y-37846000D03*
X125984000Y-65532000D03*
X126492000Y-74168000D03*
X112522000Y-74676000D03*
X105664000Y-76708000D03*
X101600000Y-76708000D03*
X101854000Y-72898000D03*
X101854000Y-69342000D03*
X106172000Y-67564000D03*
X112500000Y-69000000D03*
X108500000Y-65500000D03*
X93500000Y-67000000D03*
X100000000Y-67000000D03*
X98500000Y-63500000D03*
X93500000Y-63500000D03*
%TO.N,+3.3V*%
X111964189Y-60313800D03*
X118977189Y-64885800D03*
X111103189Y-70854800D03*
X104372189Y-69838800D03*
%TO.N,/Power/EN_5V*%
X104725189Y-46724800D03*
X115167189Y-60948800D03*
%TO.N,Net-(J2-Pin_11)*%
X105007189Y-60440800D03*
%TO.N,Net-(J2-Pin_6)*%
X105642189Y-61202800D03*
%TO.N,Net-(J2-Pin_12)*%
X106277189Y-60440800D03*
%TO.N,Net-(J2-Pin_5)*%
X106912189Y-61202800D03*
%TO.N,Net-(J2-Pin_13)*%
X107547189Y-60567800D03*
%TO.N,Net-(J2-Pin_4)*%
X108263857Y-61143143D03*
%TO.N,Net-(J2-Pin_14)*%
X108528189Y-62091800D03*
%TO.N,Net-(J1-Pin_4)*%
X102594189Y-61329800D03*
%TO.N,Net-(J1-Pin_3)*%
X101705189Y-61456800D03*
%TO.N,/LED_Matrix1/DIN*%
X127105189Y-28690800D03*
X116183189Y-61329800D03*
%TO.N,/LED_Matrix1/LED_Matrix_Line10/DOUT*%
X177905189Y-28690800D03*
X176635189Y-68822800D03*
%TO.N,/LED_Matrix1/LED_Matrix_Line10/DIN*%
X171555189Y-68822800D03*
X173079189Y-28660800D03*
%TO.N,/LED_Matrix1/LED_Matrix_Line8/DOUT*%
X168507189Y-28690800D03*
X166983189Y-68892800D03*
%TO.N,/LED_Matrix1/LED_Matrix_Line7/DOUT*%
X162411189Y-68892800D03*
X163935189Y-28660800D03*
%TO.N,/LED_Matrix1/LED_Matrix_Line6/DOUT*%
X158855189Y-28690800D03*
X157839189Y-68892800D03*
%TO.N,/LED_Matrix1/LED_Matrix_Line5/DOUT*%
X153267189Y-68822800D03*
X154791189Y-28660800D03*
%TO.N,/LED_Matrix1/LED_Matrix_Line4/DOUT*%
X150219189Y-28690800D03*
X148695189Y-68892800D03*
%TO.N,/LED_Matrix1/LED_Matrix_Line3/DOUT*%
X144123189Y-68898800D03*
X145647189Y-28660800D03*
%TO.N,/LED_Matrix1/LED_Matrix_Line2/DOUT*%
X141075189Y-28690800D03*
X139551189Y-68892800D03*
%TO.N,/LED_Matrix1/LED_Matrix_Line1/DOUT*%
X134979189Y-68822800D03*
X136757189Y-28660800D03*
%TO.N,/LED_Matrix1/LED_Matrix_Line0/DOUT*%
X131931189Y-28690800D03*
X130407189Y-68852800D03*
%TO.N,Net-(U3-~{STDBY})*%
X107039189Y-36310800D03*
X101959189Y-27166800D03*
%TO.N,Net-(U3-~{CHRG})*%
X106531189Y-37834800D03*
X101959189Y-28690800D03*
%TD*%
D21*
%TO.N,/Power/EN_5V*%
X104725189Y-50506800D02*
X105642189Y-51423800D01*
X104725189Y-46724800D02*
X104725189Y-50506800D01*
D22*
%TO.N,+3.3V*%
X118795739Y-65067250D02*
X118977189Y-64885800D01*
X116313971Y-65067250D02*
X118795739Y-65067250D01*
X111964189Y-60717468D02*
X116313971Y-65067250D01*
X111964189Y-60313800D02*
X111964189Y-60717468D01*
D21*
X105769189Y-71235800D02*
X104372189Y-69838800D01*
X110849189Y-71235800D02*
X105769189Y-71235800D01*
X111103189Y-70854800D02*
X111103189Y-70981800D01*
X111103189Y-70981800D02*
X110849189Y-71235800D01*
%TO.N,Net-(J1-Pin_3)*%
X118469189Y-70473800D02*
X117834189Y-69838800D01*
X118469189Y-71362800D02*
X118469189Y-70473800D01*
X116691189Y-73140800D02*
X118469189Y-71362800D01*
X114913189Y-73140800D02*
X116691189Y-73140800D01*
X110937089Y-70239800D02*
X112012189Y-70239800D01*
X102345246Y-61930800D02*
X102628089Y-61930800D01*
X102628089Y-61930800D02*
X110937089Y-70239800D01*
X101993189Y-61578743D02*
X102345246Y-61930800D01*
X101993189Y-61456800D02*
X101993189Y-61578743D01*
X112012189Y-70239800D02*
X114913189Y-73140800D01*
X101705189Y-61456800D02*
X101993189Y-61456800D01*
%TO.N,Net-(J2-Pin_11)*%
X137616789Y-69936400D02*
X142091189Y-74410800D01*
X126604589Y-69936400D02*
X137616789Y-69936400D01*
X126604589Y-67850900D02*
X126604589Y-69936400D01*
X124371939Y-65618250D02*
X126604589Y-67850900D01*
X116085739Y-65618250D02*
X124371939Y-65618250D01*
X109231289Y-58763800D02*
X116085739Y-65618250D01*
X106537146Y-58763800D02*
X109231289Y-58763800D01*
X105007189Y-60440800D02*
X105007189Y-60293757D01*
X105007189Y-60293757D02*
X106537146Y-58763800D01*
%TO.N,Net-(J2-Pin_6)*%
X140940189Y-75799800D02*
X142091189Y-76950800D01*
X140940189Y-74172040D02*
X140940189Y-75799800D01*
X137903949Y-71135800D02*
X140940189Y-74172040D01*
X127236889Y-71135800D02*
X137903949Y-71135800D01*
X126203589Y-70102500D02*
X127236889Y-71135800D01*
X126203589Y-68017000D02*
X126203589Y-70102500D01*
X124262389Y-66075800D02*
X126203589Y-68017000D01*
X115976189Y-66075800D02*
X124262389Y-66075800D01*
X109065189Y-59164800D02*
X115976189Y-66075800D01*
X106703246Y-59164800D02*
X109065189Y-59164800D01*
X105642189Y-60225857D02*
X106703246Y-59164800D01*
X105642189Y-61202800D02*
X105642189Y-60225857D01*
%TO.N,Net-(J2-Pin_12)*%
X136677189Y-71536800D02*
X139551189Y-74410800D01*
X127070789Y-71536800D02*
X136677189Y-71536800D01*
X125802589Y-68183100D02*
X125802589Y-70268600D01*
X124096289Y-66476800D02*
X125802589Y-68183100D01*
X115802189Y-66476800D02*
X124096289Y-66476800D01*
X106277189Y-60313800D02*
X107025189Y-59565800D01*
X107025189Y-59565800D02*
X108891189Y-59565800D01*
X125802589Y-70268600D02*
X127070789Y-71536800D01*
X108891189Y-59565800D02*
X115802189Y-66476800D01*
X106277189Y-60440800D02*
X106277189Y-60313800D01*
%TO.N,Net-(J2-Pin_5)*%
X138408189Y-75807800D02*
X139551189Y-76950800D01*
X138281189Y-75807800D02*
X138408189Y-75807800D01*
X138281189Y-74053040D02*
X138281189Y-75807800D01*
X136165949Y-71937800D02*
X138281189Y-74053040D01*
X126904689Y-71937800D02*
X136165949Y-71937800D01*
X125401589Y-68349200D02*
X125401589Y-70434700D01*
X115508189Y-66877800D02*
X123930189Y-66877800D01*
X108597189Y-59966800D02*
X115508189Y-66877800D01*
X107298246Y-59966800D02*
X108597189Y-59966800D01*
X125401589Y-70434700D02*
X126904689Y-71937800D01*
X106912189Y-60352857D02*
X107298246Y-59966800D01*
X123930189Y-66877800D02*
X125401589Y-68349200D01*
X106912189Y-61202800D02*
X106912189Y-60352857D01*
%TO.N,Net-(J2-Pin_13)*%
X134939189Y-72338800D02*
X137011189Y-74410800D01*
X126738589Y-72338800D02*
X134939189Y-72338800D01*
X123715289Y-67278800D02*
X125000589Y-68564100D01*
X115294189Y-67278800D02*
X123715289Y-67278800D01*
X107572846Y-60542143D02*
X108557532Y-60542143D01*
X125000589Y-68564100D02*
X125000589Y-70600800D01*
X125000589Y-70600800D02*
X126738589Y-72338800D01*
X108557532Y-60542143D02*
X115294189Y-67278800D01*
X107547189Y-60567800D02*
X107572846Y-60542143D01*
%TO.N,Net-(J2-Pin_14)*%
X132800189Y-72739800D02*
X134471189Y-74410800D01*
X124599589Y-68769300D02*
X124599589Y-70830100D01*
X126509289Y-72739800D02*
X132800189Y-72739800D01*
X123617089Y-67786800D02*
X124599589Y-68769300D01*
X114639189Y-67786800D02*
X123617089Y-67786800D01*
X108944189Y-62091800D02*
X114639189Y-67786800D01*
X124599589Y-70830100D02*
X126509289Y-72739800D01*
X108528189Y-62091800D02*
X108944189Y-62091800D01*
%TO.N,Net-(J2-Pin_4)*%
X124198589Y-70996200D02*
X126343189Y-73140800D01*
X126343189Y-73140800D02*
X132634089Y-73140800D01*
X124198589Y-68935400D02*
X124198589Y-70996200D01*
X132634089Y-73140800D02*
X133320189Y-73826900D01*
X134232429Y-75799800D02*
X135860189Y-75799800D01*
X133320189Y-74887560D02*
X134232429Y-75799800D01*
X133320189Y-73826900D02*
X133320189Y-74887560D01*
X123450989Y-68187800D02*
X124198589Y-68935400D01*
X123168189Y-68187800D02*
X123450989Y-68187800D01*
X135860189Y-75799800D02*
X137011189Y-76950800D01*
X113774246Y-68187800D02*
X123168189Y-68187800D01*
X123168189Y-68187800D02*
X123363089Y-68187800D01*
X107927189Y-62340743D02*
X113774246Y-68187800D01*
X107927189Y-61479811D02*
X107927189Y-62340743D01*
X108263857Y-61143143D02*
X107927189Y-61479811D01*
%TO.N,Net-(J1-Pin_4)*%
X111103189Y-69838800D02*
X115294189Y-69838800D01*
X102594189Y-61329800D02*
X111103189Y-69838800D01*
D22*
%TO.N,/LED_Matrix1/DIN*%
X125200189Y-28690800D02*
X127105189Y-28690800D01*
X123295189Y-30595800D02*
X125200189Y-28690800D01*
X123295189Y-54217800D02*
X123295189Y-30595800D01*
X116183189Y-61329800D02*
X123295189Y-54217800D01*
%TO.N,/LED_Matrix1/LED_Matrix_Line10/DIN*%
X172296332Y-29443657D02*
X173079189Y-28660800D01*
X172063189Y-68822800D02*
X172296332Y-68589657D01*
X172296332Y-68589657D02*
X172296332Y-29443657D01*
X171555189Y-68822800D02*
X172063189Y-68822800D01*
%TO.N,/LED_Matrix1/LED_Matrix_Line8/DOUT*%
X167491189Y-28944800D02*
X167745189Y-28690800D01*
X166983189Y-68892800D02*
X167491189Y-68384800D01*
X167745189Y-28690800D02*
X168507189Y-28690800D01*
X167491189Y-68384800D02*
X167491189Y-28944800D01*
%TO.N,/LED_Matrix1/LED_Matrix_Line7/DOUT*%
X163173189Y-68568800D02*
X163173189Y-29422800D01*
X162411189Y-68892800D02*
X162849189Y-68892800D01*
X163173189Y-29422800D02*
X163935189Y-28660800D01*
X162849189Y-68892800D02*
X163173189Y-68568800D01*
%TO.N,/LED_Matrix1/LED_Matrix_Line6/DOUT*%
X157839189Y-68892800D02*
X158544966Y-68187023D01*
X158544966Y-68187023D02*
X158544966Y-29001023D01*
X158544966Y-29001023D02*
X158855189Y-28690800D01*
%TO.N,/LED_Matrix1/LED_Matrix_Line5/DOUT*%
X154029189Y-29422800D02*
X154791189Y-28660800D01*
X153775189Y-68822800D02*
X154029189Y-68568800D01*
X153267189Y-68822800D02*
X153775189Y-68822800D01*
X154029189Y-68568800D02*
X154029189Y-29422800D01*
%TO.N,/LED_Matrix1/LED_Matrix_Line4/DOUT*%
X149457189Y-28690800D02*
X150219189Y-28690800D01*
X149203189Y-28944800D02*
X149457189Y-28690800D01*
X149203189Y-68384800D02*
X149203189Y-28944800D01*
X148695189Y-68892800D02*
X149203189Y-68384800D01*
%TO.N,/LED_Matrix1/LED_Matrix_Line3/DOUT*%
X144555189Y-68898800D02*
X144885189Y-68568800D01*
X144123189Y-68898800D02*
X144555189Y-68898800D01*
X144885189Y-68568800D02*
X144885189Y-29422800D01*
X144885189Y-29422800D02*
X145647189Y-28660800D01*
%TO.N,/LED_Matrix1/LED_Matrix_Line2/DOUT*%
X139805189Y-68638800D02*
X139805189Y-29198800D01*
X139551189Y-68892800D02*
X139805189Y-68638800D01*
X140313189Y-28690800D02*
X141075189Y-28690800D01*
X139805189Y-29198800D02*
X140313189Y-28690800D01*
%TO.N,/LED_Matrix1/LED_Matrix_Line1/DOUT*%
X135741189Y-29676800D02*
X136757189Y-28660800D01*
X134979189Y-68822800D02*
X135487189Y-68822800D01*
X135487189Y-68822800D02*
X135741189Y-68568800D01*
X135741189Y-68568800D02*
X135741189Y-29676800D01*
%TO.N,/LED_Matrix1/LED_Matrix_Line0/DOUT*%
X131169189Y-28690800D02*
X131931189Y-28690800D01*
X130407189Y-68852800D02*
X130915189Y-68344800D01*
X130915189Y-68344800D02*
X130915189Y-28944800D01*
X130915189Y-28944800D02*
X131169189Y-28690800D01*
%TO.N,/LED_Matrix1/LED_Matrix_Line10/DOUT*%
X177905189Y-28690800D02*
X176889189Y-28690800D01*
X176635189Y-28944800D02*
X176635189Y-68822800D01*
X176889189Y-28690800D02*
X176635189Y-28944800D01*
D21*
%TO.N,Net-(U3-~{STDBY})*%
X106785189Y-31992800D02*
X106785189Y-36056800D01*
X101959189Y-27166800D02*
X106785189Y-31992800D01*
X106785189Y-36056800D02*
X107039189Y-36310800D01*
%TO.N,Net-(U3-~{CHRG})*%
X106023189Y-32754800D02*
X106023189Y-37326800D01*
X101959189Y-28690800D02*
X106023189Y-32754800D01*
X106023189Y-37326800D02*
X106531189Y-37834800D01*
%TO.N,/Power/EN_5V*%
X115167189Y-60948800D02*
X105642189Y-51423800D01*
%TD*%
%TA.AperFunction,Conductor*%
%TO.N,GND*%
G36*
X188943039Y-20019685D02*
G01*
X188988794Y-20072489D01*
X189000000Y-20124000D01*
X189000000Y-78876000D01*
X188980315Y-78943039D01*
X188927511Y-78988794D01*
X188876000Y-79000000D01*
X93124000Y-79000000D01*
X93056961Y-78980315D01*
X93011206Y-78927511D01*
X93000000Y-78876000D01*
X93000000Y-75859568D01*
X93499500Y-75859568D01*
X93499500Y-76140431D01*
X93530942Y-76419494D01*
X93530945Y-76419512D01*
X93593439Y-76693317D01*
X93593443Y-76693329D01*
X93686200Y-76958411D01*
X93808053Y-77211442D01*
X93808055Y-77211445D01*
X93957477Y-77449248D01*
X94063553Y-77582263D01*
X94124442Y-77658616D01*
X94132584Y-77668825D01*
X94331175Y-77867416D01*
X94550752Y-78042523D01*
X94788555Y-78191945D01*
X95041592Y-78313801D01*
X95240680Y-78383465D01*
X95306670Y-78406556D01*
X95306682Y-78406560D01*
X95580491Y-78469055D01*
X95580497Y-78469055D01*
X95580505Y-78469057D01*
X95766547Y-78490018D01*
X95859569Y-78500499D01*
X95859572Y-78500500D01*
X95859575Y-78500500D01*
X96140428Y-78500500D01*
X96140429Y-78500499D01*
X96283055Y-78484429D01*
X96419494Y-78469057D01*
X96419499Y-78469056D01*
X96419509Y-78469055D01*
X96693318Y-78406560D01*
X96958408Y-78313801D01*
X97211445Y-78191945D01*
X97449248Y-78042523D01*
X97668825Y-77867416D01*
X97867416Y-77668825D01*
X98042523Y-77449248D01*
X98191945Y-77211445D01*
X98313801Y-76958408D01*
X98406560Y-76693318D01*
X98469055Y-76419509D01*
X98500500Y-76140425D01*
X98500500Y-75859575D01*
X98487394Y-75743252D01*
X98469057Y-75580505D01*
X98469054Y-75580487D01*
X98465713Y-75565851D01*
X98406560Y-75306682D01*
X98313801Y-75041592D01*
X98191945Y-74788555D01*
X98042523Y-74550752D01*
X97867416Y-74331175D01*
X97668825Y-74132584D01*
X97449248Y-73957477D01*
X97211445Y-73808055D01*
X97211442Y-73808053D01*
X96958411Y-73686200D01*
X96693329Y-73593443D01*
X96693317Y-73593439D01*
X96419512Y-73530945D01*
X96419494Y-73530942D01*
X96140431Y-73499500D01*
X96140425Y-73499500D01*
X95859575Y-73499500D01*
X95859568Y-73499500D01*
X95580505Y-73530942D01*
X95580487Y-73530945D01*
X95306682Y-73593439D01*
X95306670Y-73593443D01*
X95041588Y-73686200D01*
X94788557Y-73808053D01*
X94550753Y-73957476D01*
X94331175Y-74132583D01*
X94132583Y-74331175D01*
X93957476Y-74550753D01*
X93808053Y-74788557D01*
X93686200Y-75041588D01*
X93593443Y-75306670D01*
X93593439Y-75306682D01*
X93530945Y-75580487D01*
X93530942Y-75580505D01*
X93499500Y-75859568D01*
X93000000Y-75859568D01*
X93000000Y-52517446D01*
X93470389Y-52517446D01*
X93470389Y-52734157D01*
X93504291Y-52948204D01*
X93504291Y-52948207D01*
X93571257Y-53154307D01*
X93571259Y-53154310D01*
X93669644Y-53347402D01*
X93797025Y-53522727D01*
X93950264Y-53675966D01*
X93950267Y-53675968D01*
X94009458Y-53718973D01*
X94052124Y-53774303D01*
X94058103Y-53843916D01*
X94025497Y-53905711D01*
X94024256Y-53906971D01*
X93961704Y-53969524D01*
X93854298Y-54117355D01*
X93771342Y-54280166D01*
X93714873Y-54453958D01*
X93686289Y-54634429D01*
X93686289Y-54817170D01*
X93714873Y-54997641D01*
X93714874Y-54997645D01*
X93771341Y-55171431D01*
X93854298Y-55334244D01*
X93961704Y-55482076D01*
X94090913Y-55611285D01*
X94110454Y-55625482D01*
X94153120Y-55680811D01*
X94159100Y-55750424D01*
X94126494Y-55812219D01*
X94110456Y-55826117D01*
X94090913Y-55840315D01*
X93961706Y-55969522D01*
X93854298Y-56117356D01*
X93771342Y-56280167D01*
X93714873Y-56453959D01*
X93686289Y-56634430D01*
X93686289Y-56817171D01*
X93714873Y-56997642D01*
X93714874Y-56997646D01*
X93771341Y-57171432D01*
X93854298Y-57334245D01*
X93961704Y-57482077D01*
X94090913Y-57611286D01*
X94110454Y-57625483D01*
X94153120Y-57680812D01*
X94159100Y-57750425D01*
X94126494Y-57812220D01*
X94110456Y-57826118D01*
X94090913Y-57840316D01*
X93961706Y-57969523D01*
X93854298Y-58117357D01*
X93771342Y-58280168D01*
X93771341Y-58280170D01*
X93771341Y-58280171D01*
X93743107Y-58367064D01*
X93714873Y-58453960D01*
X93686289Y-58634431D01*
X93686289Y-58817172D01*
X93714873Y-58997643D01*
X93714874Y-58997647D01*
X93771341Y-59171433D01*
X93854298Y-59334246D01*
X93961704Y-59482078D01*
X93961706Y-59482080D01*
X94024255Y-59544629D01*
X94057740Y-59605952D01*
X94052756Y-59675644D01*
X94010884Y-59731577D01*
X94009493Y-59732603D01*
X93950264Y-59775636D01*
X93950262Y-59775638D01*
X93950261Y-59775638D01*
X93797027Y-59928872D01*
X93669644Y-60104199D01*
X93571257Y-60297294D01*
X93504291Y-60503394D01*
X93504291Y-60503397D01*
X93485758Y-60620408D01*
X93470389Y-60717444D01*
X93470389Y-60934156D01*
X93475030Y-60963460D01*
X93504291Y-61148202D01*
X93504291Y-61148205D01*
X93571257Y-61354305D01*
X93583309Y-61377958D01*
X93669644Y-61547400D01*
X93797025Y-61722725D01*
X93950264Y-61875964D01*
X94125589Y-62003345D01*
X94273258Y-62078586D01*
X94318683Y-62101731D01*
X94524784Y-62168697D01*
X94524785Y-62168697D01*
X94524788Y-62168698D01*
X94738833Y-62202600D01*
X94738834Y-62202600D01*
X94955544Y-62202600D01*
X94955545Y-62202600D01*
X95169590Y-62168698D01*
X95169593Y-62168697D01*
X95169594Y-62168697D01*
X95375694Y-62101731D01*
X95375694Y-62101730D01*
X95375697Y-62101730D01*
X95568789Y-62003345D01*
X95744114Y-61875964D01*
X95897353Y-61722725D01*
X96024734Y-61547400D01*
X96111071Y-61377953D01*
X100904689Y-61377953D01*
X100904689Y-61535646D01*
X100935450Y-61690289D01*
X100935453Y-61690301D01*
X100995791Y-61835972D01*
X100995798Y-61835985D01*
X101083399Y-61967088D01*
X101083402Y-61967092D01*
X101194896Y-62078586D01*
X101194900Y-62078589D01*
X101326003Y-62166190D01*
X101326016Y-62166197D01*
X101471687Y-62226535D01*
X101471692Y-62226537D01*
X101626342Y-62257299D01*
X101626345Y-62257300D01*
X101771148Y-62257300D01*
X101838187Y-62276985D01*
X101858830Y-62293619D01*
X101976530Y-62411320D01*
X102113457Y-62490375D01*
X102113458Y-62490375D01*
X102113461Y-62490377D01*
X102266189Y-62531301D01*
X102327993Y-62531301D01*
X102395032Y-62550986D01*
X102415674Y-62567620D01*
X110271673Y-70423619D01*
X110305158Y-70484942D01*
X110300174Y-70554634D01*
X110258302Y-70610567D01*
X110192838Y-70634984D01*
X110183992Y-70635300D01*
X106069286Y-70635300D01*
X106002247Y-70615615D01*
X105981605Y-70598981D01*
X105206763Y-69824139D01*
X105173278Y-69762816D01*
X105172827Y-69760649D01*
X105154784Y-69669947D01*
X105141926Y-69605303D01*
X105141924Y-69605298D01*
X105081586Y-69459627D01*
X105081579Y-69459614D01*
X104993978Y-69328511D01*
X104993975Y-69328507D01*
X104882481Y-69217013D01*
X104882477Y-69217010D01*
X104751374Y-69129409D01*
X104751361Y-69129402D01*
X104605690Y-69069064D01*
X104605678Y-69069061D01*
X104451034Y-69038300D01*
X104451031Y-69038300D01*
X104293347Y-69038300D01*
X104293344Y-69038300D01*
X104138699Y-69069061D01*
X104138687Y-69069064D01*
X103993016Y-69129402D01*
X103993003Y-69129409D01*
X103861900Y-69217010D01*
X103861896Y-69217013D01*
X103750402Y-69328507D01*
X103750399Y-69328511D01*
X103662798Y-69459614D01*
X103662791Y-69459627D01*
X103602453Y-69605298D01*
X103602450Y-69605310D01*
X103571689Y-69759953D01*
X103571689Y-69917646D01*
X103602450Y-70072289D01*
X103602453Y-70072301D01*
X103662791Y-70217972D01*
X103662798Y-70217985D01*
X103750399Y-70349088D01*
X103750402Y-70349092D01*
X103861896Y-70460586D01*
X103861900Y-70460589D01*
X103993003Y-70548190D01*
X103993016Y-70548197D01*
X104119327Y-70600516D01*
X104138692Y-70608537D01*
X104202871Y-70621303D01*
X104294038Y-70639438D01*
X104355949Y-70671823D01*
X104357528Y-70673374D01*
X105284328Y-71600174D01*
X105284338Y-71600185D01*
X105288668Y-71604515D01*
X105288669Y-71604516D01*
X105400473Y-71716320D01*
X105400475Y-71716321D01*
X105400479Y-71716324D01*
X105537398Y-71795373D01*
X105537405Y-71795377D01*
X105649208Y-71825334D01*
X105690131Y-71836300D01*
X105690132Y-71836300D01*
X110762520Y-71836300D01*
X110762536Y-71836301D01*
X110770132Y-71836301D01*
X110928243Y-71836301D01*
X110928246Y-71836301D01*
X111080974Y-71795377D01*
X111131093Y-71766439D01*
X111217905Y-71716320D01*
X111282607Y-71651616D01*
X111289639Y-71646340D01*
X111314451Y-71637052D01*
X111331328Y-71627836D01*
X111330864Y-71626303D01*
X111336683Y-71624537D01*
X111336686Y-71624537D01*
X111482368Y-71564194D01*
X111613478Y-71476589D01*
X111724978Y-71365089D01*
X111812583Y-71233979D01*
X111842481Y-71161796D01*
X111886319Y-71107395D01*
X111952612Y-71085329D01*
X112020312Y-71102607D01*
X112044722Y-71121569D01*
X114544473Y-73621320D01*
X114544475Y-73621321D01*
X114544479Y-73621324D01*
X114656848Y-73686199D01*
X114681405Y-73700377D01*
X114834132Y-73741301D01*
X114834134Y-73741301D01*
X114999843Y-73741301D01*
X114999859Y-73741300D01*
X116604520Y-73741300D01*
X116604536Y-73741301D01*
X116612132Y-73741301D01*
X116770243Y-73741301D01*
X116770246Y-73741301D01*
X116922974Y-73700377D01*
X116973093Y-73671439D01*
X117059905Y-73621320D01*
X117171709Y-73509516D01*
X117171709Y-73509514D01*
X117181917Y-73499307D01*
X117181918Y-73499304D01*
X118949709Y-71731516D01*
X119028766Y-71594584D01*
X119069690Y-71441857D01*
X119069690Y-71283742D01*
X119069690Y-71276147D01*
X119069689Y-71276129D01*
X119069689Y-70719766D01*
X119089374Y-70652727D01*
X119142178Y-70606972D01*
X119203419Y-70596148D01*
X119258917Y-70600516D01*
X119891225Y-69968207D01*
X119908264Y-70031793D01*
X119974090Y-70145807D01*
X120067182Y-70238899D01*
X120181196Y-70304725D01*
X120244779Y-70321762D01*
X119612471Y-70954069D01*
X119612471Y-70954070D01*
X119666638Y-70993424D01*
X119855971Y-71089895D01*
X120058059Y-71155557D01*
X120267943Y-71188800D01*
X120480435Y-71188800D01*
X120690316Y-71155557D01*
X120690319Y-71155557D01*
X120892406Y-71089895D01*
X121081743Y-70993422D01*
X121135905Y-70954070D01*
X121135906Y-70954070D01*
X120503597Y-70321762D01*
X120567182Y-70304725D01*
X120681196Y-70238899D01*
X120774288Y-70145807D01*
X120840114Y-70031793D01*
X120857151Y-69968209D01*
X121527370Y-70638428D01*
X121560855Y-70699751D01*
X121563689Y-70726100D01*
X121563689Y-70736665D01*
X121563690Y-70736676D01*
X121570097Y-70796283D01*
X121620391Y-70931128D01*
X121620395Y-70931135D01*
X121706641Y-71046344D01*
X121706644Y-71046347D01*
X121821853Y-71132593D01*
X121821860Y-71132597D01*
X121956706Y-71182891D01*
X121956705Y-71182891D01*
X121963633Y-71183635D01*
X122016316Y-71189300D01*
X123545085Y-71189299D01*
X123612124Y-71208984D01*
X123652472Y-71251299D01*
X123718066Y-71364912D01*
X123718070Y-71364917D01*
X123836938Y-71483785D01*
X123836944Y-71483790D01*
X125858328Y-73505174D01*
X125858338Y-73505185D01*
X125862668Y-73509515D01*
X125862669Y-73509516D01*
X125974473Y-73621320D01*
X125974475Y-73621321D01*
X125974479Y-73621324D01*
X126086848Y-73686199D01*
X126111405Y-73700377D01*
X126223208Y-73730334D01*
X126264131Y-73741300D01*
X126264132Y-73741300D01*
X128018052Y-73741300D01*
X128085091Y-73760985D01*
X128130846Y-73813789D01*
X128140790Y-73882947D01*
X128135983Y-73903618D01*
X128073942Y-74094559D01*
X128067920Y-74132583D01*
X128040689Y-74304513D01*
X128040689Y-74517087D01*
X128073943Y-74727043D01*
X128093930Y-74788557D01*
X128139633Y-74929214D01*
X128236140Y-75118620D01*
X128361079Y-75290586D01*
X128474619Y-75404126D01*
X128508104Y-75465449D01*
X128503120Y-75535141D01*
X128461248Y-75591074D01*
X128430272Y-75607989D01*
X128298858Y-75657003D01*
X128298853Y-75657006D01*
X128183644Y-75743252D01*
X128183641Y-75743255D01*
X128097395Y-75858464D01*
X128097391Y-75858471D01*
X128047097Y-75993317D01*
X128040690Y-76052916D01*
X128040689Y-76052935D01*
X128040689Y-77848670D01*
X128040690Y-77848676D01*
X128047097Y-77908283D01*
X128097391Y-78043128D01*
X128097395Y-78043135D01*
X128183641Y-78158344D01*
X128183644Y-78158347D01*
X128298853Y-78244593D01*
X128298860Y-78244597D01*
X128433706Y-78294891D01*
X128433705Y-78294891D01*
X128440633Y-78295635D01*
X128493316Y-78301300D01*
X130289061Y-78301299D01*
X130348672Y-78294891D01*
X130483520Y-78244596D01*
X130598735Y-78158346D01*
X130684985Y-78043131D01*
X130733999Y-77911716D01*
X130775870Y-77855784D01*
X130841334Y-77831366D01*
X130909607Y-77846217D01*
X130937862Y-77867369D01*
X131051402Y-77980909D01*
X131223368Y-78105848D01*
X131223370Y-78105849D01*
X131223373Y-78105851D01*
X131412777Y-78202357D01*
X131614946Y-78268046D01*
X131824902Y-78301300D01*
X131824903Y-78301300D01*
X132037475Y-78301300D01*
X132037476Y-78301300D01*
X132247432Y-78268046D01*
X132449601Y-78202357D01*
X132639005Y-78105851D01*
X132725327Y-78043135D01*
X132810975Y-77980909D01*
X132810977Y-77980906D01*
X132810981Y-77980904D01*
X132961293Y-77830592D01*
X132961295Y-77830588D01*
X132961298Y-77830586D01*
X133078823Y-77668825D01*
X133086240Y-77658616D01*
X133090703Y-77649854D01*
X133138677Y-77599059D01*
X133206497Y-77582263D01*
X133272633Y-77604799D01*
X133311675Y-77649856D01*
X133316140Y-77658620D01*
X133441079Y-77830586D01*
X133591402Y-77980909D01*
X133763368Y-78105848D01*
X133763370Y-78105849D01*
X133763373Y-78105851D01*
X133952777Y-78202357D01*
X134154946Y-78268046D01*
X134364902Y-78301300D01*
X134364903Y-78301300D01*
X134577475Y-78301300D01*
X134577476Y-78301300D01*
X134787432Y-78268046D01*
X134989601Y-78202357D01*
X135179005Y-78105851D01*
X135265327Y-78043135D01*
X135350975Y-77980909D01*
X135350977Y-77980906D01*
X135350981Y-77980904D01*
X135501293Y-77830592D01*
X135501295Y-77830588D01*
X135501298Y-77830586D01*
X135618823Y-77668825D01*
X135626240Y-77658616D01*
X135630703Y-77649854D01*
X135678677Y-77599059D01*
X135746497Y-77582263D01*
X135812633Y-77604799D01*
X135851675Y-77649856D01*
X135856140Y-77658620D01*
X135981079Y-77830586D01*
X136131402Y-77980909D01*
X136303368Y-78105848D01*
X136303370Y-78105849D01*
X136303373Y-78105851D01*
X136492777Y-78202357D01*
X136694946Y-78268046D01*
X136904902Y-78301300D01*
X136904903Y-78301300D01*
X137117475Y-78301300D01*
X137117476Y-78301300D01*
X137327432Y-78268046D01*
X137529601Y-78202357D01*
X137719005Y-78105851D01*
X137805327Y-78043135D01*
X137890975Y-77980909D01*
X137890977Y-77980906D01*
X137890981Y-77980904D01*
X138041293Y-77830592D01*
X138041295Y-77830588D01*
X138041298Y-77830586D01*
X138158823Y-77668825D01*
X138166240Y-77658616D01*
X138170703Y-77649854D01*
X138218677Y-77599059D01*
X138286497Y-77582263D01*
X138352633Y-77604799D01*
X138391675Y-77649856D01*
X138396140Y-77658620D01*
X138521079Y-77830586D01*
X138671402Y-77980909D01*
X138843368Y-78105848D01*
X138843370Y-78105849D01*
X138843373Y-78105851D01*
X139032777Y-78202357D01*
X139234946Y-78268046D01*
X139444902Y-78301300D01*
X139444903Y-78301300D01*
X139657475Y-78301300D01*
X139657476Y-78301300D01*
X139867432Y-78268046D01*
X140069601Y-78202357D01*
X140259005Y-78105851D01*
X140345327Y-78043135D01*
X140430975Y-77980909D01*
X140430977Y-77980906D01*
X140430981Y-77980904D01*
X140581293Y-77830592D01*
X140581295Y-77830588D01*
X140581298Y-77830586D01*
X140698823Y-77668825D01*
X140706240Y-77658616D01*
X140710703Y-77649854D01*
X140758677Y-77599059D01*
X140826497Y-77582263D01*
X140892633Y-77604799D01*
X140931675Y-77649856D01*
X140936140Y-77658620D01*
X141061079Y-77830586D01*
X141211402Y-77980909D01*
X141383368Y-78105848D01*
X141383370Y-78105849D01*
X141383373Y-78105851D01*
X141572777Y-78202357D01*
X141774946Y-78268046D01*
X141984902Y-78301300D01*
X141984903Y-78301300D01*
X142197475Y-78301300D01*
X142197476Y-78301300D01*
X142407432Y-78268046D01*
X142609601Y-78202357D01*
X142799005Y-78105851D01*
X142885327Y-78043135D01*
X142970975Y-77980909D01*
X142970977Y-77980906D01*
X142970981Y-77980904D01*
X143121293Y-77830592D01*
X143121295Y-77830588D01*
X143121298Y-77830586D01*
X143238823Y-77668825D01*
X143246240Y-77658616D01*
X143250703Y-77649854D01*
X143298677Y-77599059D01*
X143366497Y-77582263D01*
X143432633Y-77604799D01*
X143471675Y-77649856D01*
X143476140Y-77658620D01*
X143601079Y-77830586D01*
X143751402Y-77980909D01*
X143923368Y-78105848D01*
X143923370Y-78105849D01*
X143923373Y-78105851D01*
X144112777Y-78202357D01*
X144314946Y-78268046D01*
X144524902Y-78301300D01*
X144524903Y-78301300D01*
X144737475Y-78301300D01*
X144737476Y-78301300D01*
X144947432Y-78268046D01*
X145149601Y-78202357D01*
X145339005Y-78105851D01*
X145425327Y-78043135D01*
X145510975Y-77980909D01*
X145510977Y-77980906D01*
X145510981Y-77980904D01*
X145661293Y-77830592D01*
X145661295Y-77830588D01*
X145661298Y-77830586D01*
X145778823Y-77668825D01*
X145786240Y-77658616D01*
X145790703Y-77649854D01*
X145838677Y-77599059D01*
X145906497Y-77582263D01*
X145972633Y-77604799D01*
X146011675Y-77649856D01*
X146016140Y-77658620D01*
X146141079Y-77830586D01*
X146291402Y-77980909D01*
X146463368Y-78105848D01*
X146463370Y-78105849D01*
X146463373Y-78105851D01*
X146652777Y-78202357D01*
X146854946Y-78268046D01*
X147064902Y-78301300D01*
X147064903Y-78301300D01*
X147277475Y-78301300D01*
X147277476Y-78301300D01*
X147487432Y-78268046D01*
X147689601Y-78202357D01*
X147879005Y-78105851D01*
X147965327Y-78043135D01*
X148050975Y-77980909D01*
X148050977Y-77980906D01*
X148050981Y-77980904D01*
X148201293Y-77830592D01*
X148201295Y-77830588D01*
X148201298Y-77830586D01*
X148318823Y-77668825D01*
X148326240Y-77658616D01*
X148422746Y-77469212D01*
X148488435Y-77267043D01*
X148521689Y-77057087D01*
X148521689Y-76844513D01*
X148488435Y-76634557D01*
X148422746Y-76432388D01*
X148326240Y-76242984D01*
X148326238Y-76242981D01*
X148326237Y-76242979D01*
X148201298Y-76071013D01*
X148050975Y-75920690D01*
X147966847Y-75859568D01*
X183499500Y-75859568D01*
X183499500Y-76140431D01*
X183530942Y-76419494D01*
X183530945Y-76419512D01*
X183593439Y-76693317D01*
X183593443Y-76693329D01*
X183686200Y-76958411D01*
X183808053Y-77211442D01*
X183808055Y-77211445D01*
X183957477Y-77449248D01*
X184063553Y-77582263D01*
X184124442Y-77658616D01*
X184132584Y-77668825D01*
X184331175Y-77867416D01*
X184550752Y-78042523D01*
X184788555Y-78191945D01*
X185041592Y-78313801D01*
X185240680Y-78383465D01*
X185306670Y-78406556D01*
X185306682Y-78406560D01*
X185580491Y-78469055D01*
X185580497Y-78469055D01*
X185580505Y-78469057D01*
X185766547Y-78490018D01*
X185859569Y-78500499D01*
X185859572Y-78500500D01*
X185859575Y-78500500D01*
X186140428Y-78500500D01*
X186140429Y-78500499D01*
X186283055Y-78484429D01*
X186419494Y-78469057D01*
X186419499Y-78469056D01*
X186419509Y-78469055D01*
X186693318Y-78406560D01*
X186958408Y-78313801D01*
X187211445Y-78191945D01*
X187449248Y-78042523D01*
X187668825Y-77867416D01*
X187867416Y-77668825D01*
X188042523Y-77449248D01*
X188191945Y-77211445D01*
X188313801Y-76958408D01*
X188406560Y-76693318D01*
X188469055Y-76419509D01*
X188500500Y-76140425D01*
X188500500Y-75859575D01*
X188487394Y-75743252D01*
X188469057Y-75580505D01*
X188469054Y-75580487D01*
X188465713Y-75565851D01*
X188406560Y-75306682D01*
X188313801Y-75041592D01*
X188191945Y-74788555D01*
X188042523Y-74550752D01*
X187867416Y-74331175D01*
X187668825Y-74132584D01*
X187449248Y-73957477D01*
X187211445Y-73808055D01*
X187211442Y-73808053D01*
X186958411Y-73686200D01*
X186693329Y-73593443D01*
X186693317Y-73593439D01*
X186419512Y-73530945D01*
X186419494Y-73530942D01*
X186140431Y-73499500D01*
X186140425Y-73499500D01*
X185859575Y-73499500D01*
X185859568Y-73499500D01*
X185580505Y-73530942D01*
X185580487Y-73530945D01*
X185306682Y-73593439D01*
X185306670Y-73593443D01*
X185041588Y-73686200D01*
X184788557Y-73808053D01*
X184550753Y-73957476D01*
X184331175Y-74132583D01*
X184132583Y-74331175D01*
X183957476Y-74550753D01*
X183808053Y-74788557D01*
X183686200Y-75041588D01*
X183593443Y-75306670D01*
X183593439Y-75306682D01*
X183530945Y-75580487D01*
X183530942Y-75580505D01*
X183499500Y-75859568D01*
X147966847Y-75859568D01*
X147879009Y-75795751D01*
X147878304Y-75795391D01*
X147870243Y-75791285D01*
X147819448Y-75743312D01*
X147802652Y-75675492D01*
X147825188Y-75609356D01*
X147870243Y-75570315D01*
X147879005Y-75565851D01*
X147968743Y-75500653D01*
X148050975Y-75440909D01*
X148050977Y-75440906D01*
X148050981Y-75440904D01*
X148201293Y-75290592D01*
X148201295Y-75290588D01*
X148201298Y-75290586D01*
X148326237Y-75118620D01*
X148326236Y-75118620D01*
X148326240Y-75118616D01*
X148422746Y-74929212D01*
X148488435Y-74727043D01*
X148521689Y-74517087D01*
X148521689Y-74304513D01*
X148488435Y-74094557D01*
X148422746Y-73892388D01*
X148326240Y-73702984D01*
X148326238Y-73702981D01*
X148326237Y-73702979D01*
X148201298Y-73531013D01*
X148050975Y-73380690D01*
X147879009Y-73255751D01*
X147689603Y-73159244D01*
X147689602Y-73159243D01*
X147689601Y-73159243D01*
X147487432Y-73093554D01*
X147487430Y-73093553D01*
X147487429Y-73093553D01*
X147326146Y-73068008D01*
X147277476Y-73060300D01*
X147064902Y-73060300D01*
X147016231Y-73068008D01*
X146854949Y-73093553D01*
X146652774Y-73159244D01*
X146463368Y-73255751D01*
X146291402Y-73380690D01*
X146141079Y-73531013D01*
X146016138Y-73702982D01*
X146011673Y-73711746D01*
X145963698Y-73762542D01*
X145895877Y-73779336D01*
X145829742Y-73756798D01*
X145790705Y-73711746D01*
X145786239Y-73702982D01*
X145661298Y-73531013D01*
X145510975Y-73380690D01*
X145339009Y-73255751D01*
X145149603Y-73159244D01*
X145149602Y-73159243D01*
X145149601Y-73159243D01*
X144947432Y-73093554D01*
X144947430Y-73093553D01*
X144947429Y-73093553D01*
X144786146Y-73068008D01*
X144737476Y-73060300D01*
X144524902Y-73060300D01*
X144476231Y-73068008D01*
X144314949Y-73093553D01*
X144112774Y-73159244D01*
X143923368Y-73255751D01*
X143751402Y-73380690D01*
X143601079Y-73531013D01*
X143476138Y-73702982D01*
X143471673Y-73711746D01*
X143423698Y-73762542D01*
X143355877Y-73779336D01*
X143289742Y-73756798D01*
X143250705Y-73711746D01*
X143246239Y-73702982D01*
X143121298Y-73531013D01*
X142970975Y-73380690D01*
X142799009Y-73255751D01*
X142609603Y-73159244D01*
X142609602Y-73159243D01*
X142609601Y-73159243D01*
X142407432Y-73093554D01*
X142407430Y-73093553D01*
X142407429Y-73093553D01*
X142246146Y-73068008D01*
X142197476Y-73060300D01*
X141984902Y-73060300D01*
X141956195Y-73064846D01*
X141774946Y-73093553D01*
X141732662Y-73107292D01*
X141662821Y-73109286D01*
X141606665Y-73077041D01*
X138104379Y-69574755D01*
X138104377Y-69574752D01*
X137985506Y-69455881D01*
X137985505Y-69455880D01*
X137895777Y-69404076D01*
X137848574Y-69376823D01*
X137695846Y-69335899D01*
X137537732Y-69335899D01*
X137530136Y-69335899D01*
X137530120Y-69335900D01*
X136334819Y-69335900D01*
X136267780Y-69316215D01*
X136222025Y-69263411D01*
X136212081Y-69194253D01*
X136241106Y-69130697D01*
X136247138Y-69124219D01*
X136324137Y-69047219D01*
X136324136Y-69047219D01*
X136324140Y-69047216D01*
X136406273Y-68924295D01*
X136451978Y-68813953D01*
X138750689Y-68813953D01*
X138750689Y-68971646D01*
X138781450Y-69126289D01*
X138781453Y-69126301D01*
X138841791Y-69271972D01*
X138841798Y-69271985D01*
X138929399Y-69403088D01*
X138929402Y-69403092D01*
X139040896Y-69514586D01*
X139040900Y-69514589D01*
X139172003Y-69602190D01*
X139172016Y-69602197D01*
X139294035Y-69652738D01*
X139317692Y-69662537D01*
X139472342Y-69693299D01*
X139472345Y-69693300D01*
X139472347Y-69693300D01*
X139630033Y-69693300D01*
X139630034Y-69693299D01*
X139784686Y-69662537D01*
X139900765Y-69614456D01*
X139930361Y-69602197D01*
X139930361Y-69602196D01*
X139930368Y-69602194D01*
X140061478Y-69514589D01*
X140172978Y-69403089D01*
X140260583Y-69271979D01*
X140270381Y-69248322D01*
X140297258Y-69208097D01*
X140388140Y-69117216D01*
X140470273Y-68994295D01*
X140526847Y-68857713D01*
X140533709Y-68823216D01*
X140534358Y-68819953D01*
X143322689Y-68819953D01*
X143322689Y-68977646D01*
X143353450Y-69132289D01*
X143353453Y-69132301D01*
X143413791Y-69277972D01*
X143413798Y-69277985D01*
X143501399Y-69409088D01*
X143501402Y-69409092D01*
X143612896Y-69520586D01*
X143612900Y-69520589D01*
X143744003Y-69608190D01*
X143744016Y-69608197D01*
X143875209Y-69662538D01*
X143889692Y-69668537D01*
X144044342Y-69699299D01*
X144044345Y-69699300D01*
X144044347Y-69699300D01*
X144202033Y-69699300D01*
X144202034Y-69699299D01*
X144278341Y-69684120D01*
X144356677Y-69668539D01*
X144356678Y-69668538D01*
X144356686Y-69668537D01*
X144380344Y-69658737D01*
X144427793Y-69649300D01*
X144629109Y-69649300D01*
X144726651Y-69629896D01*
X144774102Y-69620458D01*
X144910684Y-69563884D01*
X144969924Y-69524301D01*
X145033605Y-69481752D01*
X145468140Y-69047216D01*
X145550273Y-68924295D01*
X145595978Y-68813953D01*
X147894689Y-68813953D01*
X147894689Y-68971646D01*
X147925450Y-69126289D01*
X147925453Y-69126301D01*
X147985791Y-69271972D01*
X147985798Y-69271985D01*
X148073399Y-69403088D01*
X148073402Y-69403092D01*
X148184896Y-69514586D01*
X148184900Y-69514589D01*
X148316003Y-69602190D01*
X148316016Y-69602197D01*
X148438035Y-69652738D01*
X148461692Y-69662537D01*
X148616342Y-69693299D01*
X148616345Y-69693300D01*
X148616347Y-69693300D01*
X148774033Y-69693300D01*
X148774034Y-69693299D01*
X148928686Y-69662537D01*
X149044765Y-69614456D01*
X149074361Y-69602197D01*
X149074361Y-69602196D01*
X149074368Y-69602194D01*
X149205478Y-69514589D01*
X149316978Y-69403089D01*
X149404583Y-69271979D01*
X149414381Y-69248321D01*
X149441256Y-69208098D01*
X149786140Y-68863216D01*
X149865829Y-68743953D01*
X152466689Y-68743953D01*
X152466689Y-68901646D01*
X152497450Y-69056289D01*
X152497453Y-69056301D01*
X152557791Y-69201972D01*
X152557796Y-69201981D01*
X152645399Y-69333088D01*
X152645402Y-69333092D01*
X152756896Y-69444586D01*
X152756900Y-69444589D01*
X152888003Y-69532190D01*
X152888016Y-69532197D01*
X152990762Y-69574755D01*
X153033692Y-69592537D01*
X153188342Y-69623299D01*
X153188345Y-69623300D01*
X153188347Y-69623300D01*
X153346033Y-69623300D01*
X153346034Y-69623299D01*
X153436472Y-69605310D01*
X153500677Y-69592539D01*
X153500678Y-69592538D01*
X153500686Y-69592537D01*
X153524344Y-69582737D01*
X153571793Y-69573300D01*
X153849109Y-69573300D01*
X153946651Y-69553896D01*
X153994102Y-69544458D01*
X154130684Y-69487884D01*
X154195480Y-69444589D01*
X154195483Y-69444586D01*
X154195485Y-69444586D01*
X154248606Y-69409092D01*
X154253605Y-69405752D01*
X154612140Y-69047216D01*
X154694273Y-68924295D01*
X154739978Y-68813953D01*
X157038689Y-68813953D01*
X157038689Y-68971646D01*
X157069450Y-69126289D01*
X157069453Y-69126301D01*
X157129791Y-69271972D01*
X157129798Y-69271985D01*
X157217399Y-69403088D01*
X157217402Y-69403092D01*
X157328896Y-69514586D01*
X157328900Y-69514589D01*
X157460003Y-69602190D01*
X157460016Y-69602197D01*
X157582035Y-69652738D01*
X157605692Y-69662537D01*
X157760342Y-69693299D01*
X157760345Y-69693300D01*
X157760347Y-69693300D01*
X157918033Y-69693300D01*
X157918034Y-69693299D01*
X158072686Y-69662537D01*
X158188765Y-69614456D01*
X158218361Y-69602197D01*
X158218361Y-69602196D01*
X158218368Y-69602194D01*
X158349478Y-69514589D01*
X158460978Y-69403089D01*
X158548583Y-69271979D01*
X158558381Y-69248321D01*
X158585256Y-69208098D01*
X158979402Y-68813953D01*
X161610689Y-68813953D01*
X161610689Y-68971646D01*
X161641450Y-69126289D01*
X161641453Y-69126301D01*
X161701791Y-69271972D01*
X161701798Y-69271985D01*
X161789399Y-69403088D01*
X161789402Y-69403092D01*
X161900896Y-69514586D01*
X161900900Y-69514589D01*
X162032003Y-69602190D01*
X162032016Y-69602197D01*
X162154035Y-69652738D01*
X162177692Y-69662537D01*
X162332342Y-69693299D01*
X162332345Y-69693300D01*
X162332347Y-69693300D01*
X162490033Y-69693300D01*
X162490034Y-69693299D01*
X162566341Y-69678120D01*
X162644677Y-69662539D01*
X162644678Y-69662538D01*
X162644686Y-69662537D01*
X162668344Y-69652737D01*
X162715793Y-69643300D01*
X162923109Y-69643300D01*
X163023656Y-69623299D01*
X163068102Y-69614458D01*
X163181025Y-69567684D01*
X163204677Y-69557887D01*
X163204677Y-69557886D01*
X163204684Y-69557884D01*
X163263924Y-69518301D01*
X163327605Y-69475752D01*
X163756140Y-69047216D01*
X163838273Y-68924295D01*
X163883978Y-68813953D01*
X166182689Y-68813953D01*
X166182689Y-68971646D01*
X166213450Y-69126289D01*
X166213453Y-69126301D01*
X166273791Y-69271972D01*
X166273798Y-69271985D01*
X166361399Y-69403088D01*
X166361402Y-69403092D01*
X166472896Y-69514586D01*
X166472900Y-69514589D01*
X166604003Y-69602190D01*
X166604016Y-69602197D01*
X166726035Y-69652738D01*
X166749692Y-69662537D01*
X166904342Y-69693299D01*
X166904345Y-69693300D01*
X166904347Y-69693300D01*
X167062033Y-69693300D01*
X167062034Y-69693299D01*
X167216686Y-69662537D01*
X167332765Y-69614456D01*
X167362361Y-69602197D01*
X167362361Y-69602196D01*
X167362368Y-69602194D01*
X167493478Y-69514589D01*
X167604978Y-69403089D01*
X167692583Y-69271979D01*
X167702381Y-69248321D01*
X167729256Y-69208098D01*
X168074140Y-68863216D01*
X168153829Y-68743953D01*
X170754689Y-68743953D01*
X170754689Y-68901646D01*
X170785450Y-69056289D01*
X170785453Y-69056301D01*
X170845791Y-69201972D01*
X170845796Y-69201981D01*
X170933399Y-69333088D01*
X170933402Y-69333092D01*
X171044896Y-69444586D01*
X171044900Y-69444589D01*
X171176003Y-69532190D01*
X171176016Y-69532197D01*
X171278762Y-69574755D01*
X171321692Y-69592537D01*
X171476342Y-69623299D01*
X171476345Y-69623300D01*
X171476347Y-69623300D01*
X171634033Y-69623300D01*
X171634034Y-69623299D01*
X171724472Y-69605310D01*
X171788677Y-69592539D01*
X171788678Y-69592538D01*
X171788686Y-69592537D01*
X171812344Y-69582737D01*
X171859793Y-69573300D01*
X172137109Y-69573300D01*
X172234651Y-69553896D01*
X172282102Y-69544458D01*
X172418684Y-69487884D01*
X172483480Y-69444589D01*
X172483483Y-69444586D01*
X172483485Y-69444586D01*
X172536606Y-69409092D01*
X172541605Y-69405752D01*
X172879284Y-69068073D01*
X172942997Y-68972718D01*
X172961416Y-68945152D01*
X173017990Y-68808570D01*
X173024876Y-68773953D01*
X173030843Y-68743958D01*
X175834689Y-68743958D01*
X175834689Y-68751801D01*
X175834689Y-68901646D01*
X175865450Y-69056289D01*
X175865453Y-69056301D01*
X175925791Y-69201972D01*
X175925796Y-69201981D01*
X176013399Y-69333088D01*
X176013402Y-69333092D01*
X176124896Y-69444586D01*
X176124900Y-69444589D01*
X176256003Y-69532190D01*
X176256016Y-69532197D01*
X176358762Y-69574755D01*
X176401692Y-69592537D01*
X176556342Y-69623299D01*
X176556345Y-69623300D01*
X176556347Y-69623300D01*
X176714033Y-69623300D01*
X176714034Y-69623299D01*
X176868686Y-69592537D01*
X177014368Y-69532194D01*
X177145478Y-69444589D01*
X177256978Y-69333089D01*
X177324538Y-69231979D01*
X177344582Y-69201981D01*
X177344586Y-69201972D01*
X177374645Y-69129402D01*
X177404926Y-69056297D01*
X177435689Y-68901642D01*
X177435689Y-68743958D01*
X177435689Y-68743955D01*
X177435688Y-68743953D01*
X177404928Y-68589311D01*
X177404927Y-68589308D01*
X177404926Y-68589303D01*
X177395126Y-68565644D01*
X177385689Y-68518196D01*
X177385689Y-29565300D01*
X177388239Y-29556614D01*
X177386951Y-29547653D01*
X177397929Y-29523612D01*
X177405374Y-29498261D01*
X177412214Y-29492333D01*
X177415976Y-29484097D01*
X177438210Y-29469807D01*
X177458178Y-29452506D01*
X177468692Y-29450218D01*
X177474754Y-29446323D01*
X177509689Y-29441300D01*
X177600585Y-29441300D01*
X177648033Y-29450737D01*
X177671692Y-29460537D01*
X177671697Y-29460538D01*
X177671700Y-29460539D01*
X177826342Y-29491299D01*
X177826345Y-29491300D01*
X177826347Y-29491300D01*
X177984033Y-29491300D01*
X177984034Y-29491299D01*
X178138686Y-29460537D01*
X178284368Y-29400194D01*
X178415478Y-29312589D01*
X178526978Y-29201089D01*
X178614583Y-29069979D01*
X178674926Y-28924297D01*
X178705689Y-28769642D01*
X178705689Y-28611958D01*
X178705689Y-28611955D01*
X178705688Y-28611953D01*
X178676732Y-28466384D01*
X178674926Y-28457303D01*
X178633820Y-28358063D01*
X178614586Y-28311627D01*
X178614579Y-28311614D01*
X178526978Y-28180511D01*
X178526975Y-28180507D01*
X178415481Y-28069013D01*
X178415477Y-28069010D01*
X178284374Y-27981409D01*
X178284361Y-27981402D01*
X178138690Y-27921064D01*
X178138678Y-27921061D01*
X177984034Y-27890300D01*
X177984031Y-27890300D01*
X177826347Y-27890300D01*
X177826344Y-27890300D01*
X177671700Y-27921060D01*
X177671695Y-27921062D01*
X177671693Y-27921062D01*
X177671692Y-27921063D01*
X177648033Y-27930862D01*
X177600585Y-27940300D01*
X176815269Y-27940300D01*
X176670281Y-27969140D01*
X176670271Y-27969143D01*
X176533700Y-28025712D01*
X176533687Y-28025719D01*
X176410773Y-28107848D01*
X176410769Y-28107851D01*
X176052239Y-28466380D01*
X176033330Y-28494681D01*
X176014671Y-28522607D01*
X175970103Y-28589307D01*
X175913532Y-28725882D01*
X175913529Y-28725892D01*
X175884689Y-28870879D01*
X175884689Y-68518196D01*
X175883238Y-68525487D01*
X175881597Y-68545716D01*
X175879268Y-68555947D01*
X175865452Y-68589303D01*
X175834689Y-68743958D01*
X173030843Y-68743958D01*
X173036867Y-68713674D01*
X173046832Y-68663577D01*
X173046832Y-29805886D01*
X173066517Y-29738847D01*
X173083147Y-29718209D01*
X173394486Y-29406869D01*
X173434713Y-29379991D01*
X173458368Y-29370194D01*
X173589478Y-29282589D01*
X173700978Y-29171089D01*
X173788583Y-29039979D01*
X173848926Y-28894297D01*
X173879689Y-28739642D01*
X173879689Y-28581958D01*
X173879689Y-28581956D01*
X173879689Y-28581955D01*
X173879688Y-28581953D01*
X173867883Y-28522605D01*
X173848926Y-28427303D01*
X173848924Y-28427298D01*
X173788586Y-28281627D01*
X173788579Y-28281614D01*
X173700978Y-28150511D01*
X173700975Y-28150507D01*
X173589481Y-28039013D01*
X173589477Y-28039010D01*
X173458374Y-27951409D01*
X173458361Y-27951402D01*
X173312690Y-27891064D01*
X173312678Y-27891061D01*
X173158034Y-27860300D01*
X173158031Y-27860300D01*
X173000347Y-27860300D01*
X173000344Y-27860300D01*
X172845699Y-27891061D01*
X172845687Y-27891064D01*
X172700016Y-27951402D01*
X172700003Y-27951409D01*
X172568900Y-28039010D01*
X172568896Y-28039013D01*
X172457402Y-28150507D01*
X172457396Y-28150515D01*
X172369796Y-28281618D01*
X172369795Y-28281619D01*
X172359994Y-28305280D01*
X172333116Y-28345503D01*
X171713381Y-28965238D01*
X171664144Y-29038928D01*
X171631253Y-29088153D01*
X171631246Y-29088165D01*
X171574674Y-29224743D01*
X171574672Y-29224749D01*
X171545832Y-29369736D01*
X171545832Y-67906714D01*
X171526147Y-67973753D01*
X171473343Y-68019508D01*
X171446024Y-68028331D01*
X171321697Y-68053061D01*
X171321687Y-68053064D01*
X171176016Y-68113402D01*
X171176003Y-68113409D01*
X171044900Y-68201010D01*
X171044896Y-68201013D01*
X170933402Y-68312507D01*
X170933399Y-68312511D01*
X170845798Y-68443614D01*
X170845791Y-68443627D01*
X170785453Y-68589298D01*
X170785450Y-68589310D01*
X170754689Y-68743953D01*
X168153829Y-68743953D01*
X168156273Y-68740295D01*
X168212847Y-68603713D01*
X168218245Y-68576576D01*
X168235413Y-68490266D01*
X168241689Y-68458720D01*
X168241689Y-29605266D01*
X168261374Y-29538227D01*
X168314178Y-29492472D01*
X168383336Y-29482528D01*
X168389881Y-29483649D01*
X168428344Y-29491300D01*
X168428347Y-29491300D01*
X168586033Y-29491300D01*
X168586034Y-29491299D01*
X168740686Y-29460537D01*
X168886368Y-29400194D01*
X169017478Y-29312589D01*
X169128978Y-29201089D01*
X169216583Y-29069979D01*
X169276926Y-28924297D01*
X169307689Y-28769642D01*
X169307689Y-28611958D01*
X169307689Y-28611955D01*
X169307688Y-28611953D01*
X169278732Y-28466384D01*
X169276926Y-28457303D01*
X169235820Y-28358063D01*
X169216586Y-28311627D01*
X169216579Y-28311614D01*
X169128978Y-28180511D01*
X169128975Y-28180507D01*
X169017481Y-28069013D01*
X169017477Y-28069010D01*
X168886374Y-27981409D01*
X168886361Y-27981402D01*
X168740690Y-27921064D01*
X168740678Y-27921061D01*
X168586034Y-27890300D01*
X168586031Y-27890300D01*
X168428347Y-27890300D01*
X168428344Y-27890300D01*
X168273700Y-27921060D01*
X168273695Y-27921062D01*
X168273693Y-27921062D01*
X168273692Y-27921063D01*
X168250033Y-27930862D01*
X168202585Y-27940300D01*
X167671269Y-27940300D01*
X167526281Y-27969140D01*
X167526271Y-27969143D01*
X167389700Y-28025712D01*
X167389687Y-28025719D01*
X167266773Y-28107848D01*
X167266769Y-28107851D01*
X166908239Y-28466380D01*
X166889330Y-28494681D01*
X166870671Y-28522607D01*
X166826103Y-28589307D01*
X166769532Y-28725882D01*
X166769529Y-28725892D01*
X166740689Y-28870879D01*
X166740689Y-68022570D01*
X166732043Y-68052014D01*
X166725520Y-68081998D01*
X166721766Y-68087011D01*
X166721004Y-68089609D01*
X166704369Y-68110252D01*
X166667892Y-68146728D01*
X166627667Y-68173606D01*
X166604015Y-68183403D01*
X166604003Y-68183409D01*
X166472900Y-68271010D01*
X166472896Y-68271013D01*
X166361402Y-68382507D01*
X166361399Y-68382511D01*
X166273798Y-68513614D01*
X166273791Y-68513627D01*
X166213453Y-68659298D01*
X166213450Y-68659310D01*
X166182689Y-68813953D01*
X163883978Y-68813953D01*
X163894847Y-68787713D01*
X163918596Y-68668321D01*
X163923689Y-68642720D01*
X163923689Y-29785029D01*
X163943374Y-29717990D01*
X163960004Y-29697352D01*
X164250486Y-29406869D01*
X164290713Y-29379991D01*
X164314368Y-29370194D01*
X164445478Y-29282589D01*
X164556978Y-29171089D01*
X164644583Y-29039979D01*
X164704926Y-28894297D01*
X164735689Y-28739642D01*
X164735689Y-28581958D01*
X164735689Y-28581956D01*
X164735689Y-28581955D01*
X164735688Y-28581953D01*
X164723883Y-28522605D01*
X164704926Y-28427303D01*
X164704924Y-28427298D01*
X164644586Y-28281627D01*
X164644579Y-28281614D01*
X164556978Y-28150511D01*
X164556975Y-28150507D01*
X164445481Y-28039013D01*
X164445477Y-28039010D01*
X164314374Y-27951409D01*
X164314361Y-27951402D01*
X164168690Y-27891064D01*
X164168678Y-27891061D01*
X164014034Y-27860300D01*
X164014031Y-27860300D01*
X163856347Y-27860300D01*
X163856344Y-27860300D01*
X163701699Y-27891061D01*
X163701687Y-27891064D01*
X163556016Y-27951402D01*
X163556003Y-27951409D01*
X163424900Y-28039010D01*
X163424896Y-28039013D01*
X163313402Y-28150507D01*
X163313396Y-28150515D01*
X163225796Y-28281618D01*
X163225795Y-28281619D01*
X163215994Y-28305280D01*
X163189116Y-28345503D01*
X162590239Y-28944381D01*
X162590236Y-28944384D01*
X162545247Y-29011715D01*
X162545248Y-29011716D01*
X162508103Y-29067308D01*
X162451532Y-29203882D01*
X162451529Y-29203892D01*
X162422689Y-29348879D01*
X162422689Y-67972565D01*
X162403004Y-68039604D01*
X162350200Y-68085359D01*
X162322881Y-68094182D01*
X162177697Y-68123061D01*
X162177687Y-68123064D01*
X162032016Y-68183402D01*
X162032003Y-68183409D01*
X161900900Y-68271010D01*
X161900896Y-68271013D01*
X161789402Y-68382507D01*
X161789399Y-68382511D01*
X161701798Y-68513614D01*
X161701791Y-68513627D01*
X161641453Y-68659298D01*
X161641450Y-68659310D01*
X161610689Y-68813953D01*
X158979402Y-68813953D01*
X159127917Y-68665439D01*
X159210050Y-68542518D01*
X159217105Y-68525487D01*
X159229781Y-68494883D01*
X159266624Y-68405936D01*
X159285209Y-68312507D01*
X159295466Y-68260943D01*
X159295466Y-29425648D01*
X159315151Y-29358609D01*
X159350575Y-29322546D01*
X159365478Y-29312589D01*
X159476978Y-29201089D01*
X159564583Y-29069979D01*
X159624926Y-28924297D01*
X159655689Y-28769642D01*
X159655689Y-28611958D01*
X159655689Y-28611955D01*
X159655688Y-28611953D01*
X159626732Y-28466384D01*
X159624926Y-28457303D01*
X159583820Y-28358063D01*
X159564586Y-28311627D01*
X159564579Y-28311614D01*
X159476978Y-28180511D01*
X159476975Y-28180507D01*
X159365481Y-28069013D01*
X159365477Y-28069010D01*
X159234374Y-27981409D01*
X159234361Y-27981402D01*
X159088690Y-27921064D01*
X159088678Y-27921061D01*
X158934034Y-27890300D01*
X158934031Y-27890300D01*
X158776347Y-27890300D01*
X158776344Y-27890300D01*
X158621699Y-27921061D01*
X158621687Y-27921064D01*
X158476016Y-27981402D01*
X158476003Y-27981409D01*
X158344900Y-28069010D01*
X158344896Y-28069013D01*
X158233402Y-28180507D01*
X158233399Y-28180511D01*
X158145798Y-28311614D01*
X158145792Y-28311626D01*
X158135995Y-28335278D01*
X158109117Y-28375504D01*
X157962012Y-28522609D01*
X157942186Y-28552282D01*
X157922358Y-28581958D01*
X157879885Y-28645522D01*
X157879878Y-28645534D01*
X157823309Y-28782105D01*
X157823306Y-28782115D01*
X157794466Y-28927102D01*
X157794466Y-67824793D01*
X157774781Y-67891832D01*
X157758147Y-67912474D01*
X157523893Y-68146727D01*
X157483667Y-68173606D01*
X157460015Y-68183403D01*
X157460003Y-68183409D01*
X157328900Y-68271010D01*
X157328896Y-68271013D01*
X157217402Y-68382507D01*
X157217399Y-68382511D01*
X157129798Y-68513614D01*
X157129791Y-68513627D01*
X157069453Y-68659298D01*
X157069450Y-68659310D01*
X157038689Y-68813953D01*
X154739978Y-68813953D01*
X154750847Y-68787713D01*
X154774596Y-68668321D01*
X154779689Y-68642720D01*
X154779689Y-29785029D01*
X154799374Y-29717990D01*
X154816004Y-29697352D01*
X155106486Y-29406869D01*
X155146713Y-29379991D01*
X155170368Y-29370194D01*
X155301478Y-29282589D01*
X155412978Y-29171089D01*
X155500583Y-29039979D01*
X155560926Y-28894297D01*
X155591689Y-28739642D01*
X155591689Y-28581958D01*
X155591689Y-28581956D01*
X155591689Y-28581955D01*
X155591688Y-28581953D01*
X155579883Y-28522605D01*
X155560926Y-28427303D01*
X155560924Y-28427298D01*
X155500586Y-28281627D01*
X155500579Y-28281614D01*
X155412978Y-28150511D01*
X155412975Y-28150507D01*
X155301481Y-28039013D01*
X155301477Y-28039010D01*
X155170374Y-27951409D01*
X155170361Y-27951402D01*
X155024690Y-27891064D01*
X155024678Y-27891061D01*
X154870034Y-27860300D01*
X154870031Y-27860300D01*
X154712347Y-27860300D01*
X154712344Y-27860300D01*
X154557699Y-27891061D01*
X154557687Y-27891064D01*
X154412016Y-27951402D01*
X154412003Y-27951409D01*
X154280900Y-28039010D01*
X154280896Y-28039013D01*
X154169402Y-28150507D01*
X154169396Y-28150515D01*
X154081796Y-28281618D01*
X154081795Y-28281619D01*
X154071994Y-28305280D01*
X154045116Y-28345503D01*
X153446239Y-28944381D01*
X153446236Y-28944384D01*
X153401247Y-29011715D01*
X153401248Y-29011716D01*
X153364103Y-29067308D01*
X153307532Y-29203882D01*
X153307529Y-29203892D01*
X153278689Y-29348879D01*
X153278689Y-67902565D01*
X153259004Y-67969604D01*
X153206200Y-68015359D01*
X153178881Y-68024182D01*
X153033697Y-68053061D01*
X153033687Y-68053064D01*
X152888016Y-68113402D01*
X152888003Y-68113409D01*
X152756900Y-68201010D01*
X152756896Y-68201013D01*
X152645402Y-68312507D01*
X152645399Y-68312511D01*
X152557798Y-68443614D01*
X152557791Y-68443627D01*
X152497453Y-68589298D01*
X152497450Y-68589310D01*
X152466689Y-68743953D01*
X149865829Y-68743953D01*
X149868273Y-68740295D01*
X149924847Y-68603713D01*
X149930245Y-68576576D01*
X149947413Y-68490266D01*
X149953689Y-68458720D01*
X149953689Y-29605266D01*
X149973374Y-29538227D01*
X150026178Y-29492472D01*
X150095336Y-29482528D01*
X150101881Y-29483649D01*
X150140344Y-29491300D01*
X150140347Y-29491300D01*
X150298033Y-29491300D01*
X150298034Y-29491299D01*
X150452686Y-29460537D01*
X150598368Y-29400194D01*
X150729478Y-29312589D01*
X150840978Y-29201089D01*
X150928583Y-29069979D01*
X150988926Y-28924297D01*
X151019689Y-28769642D01*
X151019689Y-28611958D01*
X151019689Y-28611955D01*
X151019688Y-28611953D01*
X150990732Y-28466384D01*
X150988926Y-28457303D01*
X150947820Y-28358063D01*
X150928586Y-28311627D01*
X150928579Y-28311614D01*
X150840978Y-28180511D01*
X150840975Y-28180507D01*
X150729481Y-28069013D01*
X150729477Y-28069010D01*
X150598374Y-27981409D01*
X150598361Y-27981402D01*
X150452690Y-27921064D01*
X150452678Y-27921061D01*
X150298034Y-27890300D01*
X150298031Y-27890300D01*
X150140347Y-27890300D01*
X150140344Y-27890300D01*
X149985700Y-27921060D01*
X149985695Y-27921062D01*
X149985693Y-27921062D01*
X149985692Y-27921063D01*
X149962033Y-27930862D01*
X149914585Y-27940300D01*
X149383269Y-27940300D01*
X149238281Y-27969140D01*
X149238271Y-27969143D01*
X149101700Y-28025712D01*
X149101687Y-28025719D01*
X148978773Y-28107848D01*
X148978769Y-28107851D01*
X148620239Y-28466380D01*
X148601330Y-28494681D01*
X148582671Y-28522607D01*
X148538103Y-28589307D01*
X148481532Y-28725882D01*
X148481529Y-28725892D01*
X148452689Y-28870879D01*
X148452689Y-68022570D01*
X148444043Y-68052014D01*
X148437520Y-68081998D01*
X148433766Y-68087011D01*
X148433004Y-68089609D01*
X148416369Y-68110252D01*
X148379892Y-68146728D01*
X148339667Y-68173606D01*
X148316015Y-68183403D01*
X148316003Y-68183409D01*
X148184900Y-68271010D01*
X148184896Y-68271013D01*
X148073402Y-68382507D01*
X148073399Y-68382511D01*
X147985798Y-68513614D01*
X147985791Y-68513627D01*
X147925453Y-68659298D01*
X147925450Y-68659310D01*
X147894689Y-68813953D01*
X145595978Y-68813953D01*
X145606847Y-68787713D01*
X145609583Y-68773958D01*
X145613990Y-68751801D01*
X145635689Y-68642720D01*
X145635689Y-29785029D01*
X145655374Y-29717990D01*
X145672004Y-29697352D01*
X145962486Y-29406869D01*
X146002713Y-29379991D01*
X146026368Y-29370194D01*
X146157478Y-29282589D01*
X146268978Y-29171089D01*
X146356583Y-29039979D01*
X146416926Y-28894297D01*
X146447689Y-28739642D01*
X146447689Y-28581958D01*
X146447689Y-28581956D01*
X146447689Y-28581955D01*
X146447688Y-28581953D01*
X146435883Y-28522605D01*
X146416926Y-28427303D01*
X146416924Y-28427298D01*
X146356586Y-28281627D01*
X146356579Y-28281614D01*
X146268978Y-28150511D01*
X146268975Y-28150507D01*
X146157481Y-28039013D01*
X146157477Y-28039010D01*
X146026374Y-27951409D01*
X146026361Y-27951402D01*
X145880690Y-27891064D01*
X145880678Y-27891061D01*
X145726034Y-27860300D01*
X145726031Y-27860300D01*
X145568347Y-27860300D01*
X145568344Y-27860300D01*
X145413699Y-27891061D01*
X145413687Y-27891064D01*
X145268016Y-27951402D01*
X145268003Y-27951409D01*
X145136900Y-28039010D01*
X145136896Y-28039013D01*
X145025402Y-28150507D01*
X145025396Y-28150515D01*
X144937796Y-28281618D01*
X144937795Y-28281619D01*
X144927994Y-28305280D01*
X144901116Y-28345503D01*
X144302239Y-28944381D01*
X144302236Y-28944384D01*
X144257247Y-29011715D01*
X144257248Y-29011716D01*
X144220103Y-29067308D01*
X144163532Y-29203882D01*
X144163529Y-29203892D01*
X144134689Y-29348879D01*
X144134689Y-67978565D01*
X144115004Y-68045604D01*
X144062200Y-68091359D01*
X144034881Y-68100182D01*
X143889697Y-68129061D01*
X143889687Y-68129064D01*
X143744016Y-68189402D01*
X143744003Y-68189409D01*
X143612900Y-68277010D01*
X143612896Y-68277013D01*
X143501402Y-68388507D01*
X143501399Y-68388511D01*
X143413798Y-68519614D01*
X143413791Y-68519627D01*
X143353453Y-68665298D01*
X143353450Y-68665310D01*
X143322689Y-68819953D01*
X140534358Y-68819953D01*
X140540382Y-68789673D01*
X140540382Y-68789671D01*
X140555688Y-68712722D01*
X140555689Y-68712718D01*
X140555689Y-29565300D01*
X140558239Y-29556614D01*
X140556951Y-29547653D01*
X140567929Y-29523612D01*
X140575374Y-29498261D01*
X140582214Y-29492333D01*
X140585976Y-29484097D01*
X140608210Y-29469807D01*
X140628178Y-29452506D01*
X140638692Y-29450218D01*
X140644754Y-29446323D01*
X140679689Y-29441300D01*
X140770585Y-29441300D01*
X140818033Y-29450737D01*
X140841692Y-29460537D01*
X140841697Y-29460538D01*
X140841700Y-29460539D01*
X140996342Y-29491299D01*
X140996345Y-29491300D01*
X140996347Y-29491300D01*
X141154033Y-29491300D01*
X141154034Y-29491299D01*
X141308686Y-29460537D01*
X141454368Y-29400194D01*
X141585478Y-29312589D01*
X141696978Y-29201089D01*
X141784583Y-29069979D01*
X141844926Y-28924297D01*
X141875689Y-28769642D01*
X141875689Y-28611958D01*
X141875689Y-28611955D01*
X141875688Y-28611953D01*
X141846732Y-28466384D01*
X141844926Y-28457303D01*
X141803820Y-28358063D01*
X141784586Y-28311627D01*
X141784579Y-28311614D01*
X141696978Y-28180511D01*
X141696975Y-28180507D01*
X141585481Y-28069013D01*
X141585477Y-28069010D01*
X141454374Y-27981409D01*
X141454361Y-27981402D01*
X141308690Y-27921064D01*
X141308678Y-27921061D01*
X141154034Y-27890300D01*
X141154031Y-27890300D01*
X140996347Y-27890300D01*
X140996344Y-27890300D01*
X140841700Y-27921060D01*
X140841695Y-27921062D01*
X140841693Y-27921062D01*
X140841692Y-27921063D01*
X140818033Y-27930862D01*
X140770585Y-27940300D01*
X140239269Y-27940300D01*
X140103536Y-27967300D01*
X140101651Y-27967674D01*
X140094277Y-27969141D01*
X140094273Y-27969142D01*
X139957700Y-28025712D01*
X139957687Y-28025719D01*
X139834773Y-28107848D01*
X139834769Y-28107851D01*
X139222234Y-28720386D01*
X139192617Y-28764715D01*
X139192615Y-28764718D01*
X139140103Y-28843307D01*
X139083532Y-28979882D01*
X139083529Y-28979892D01*
X139054689Y-29124879D01*
X139054689Y-68205859D01*
X139035004Y-68272898D01*
X139018370Y-68293540D01*
X138929402Y-68382507D01*
X138929399Y-68382511D01*
X138841798Y-68513614D01*
X138841791Y-68513627D01*
X138781453Y-68659298D01*
X138781450Y-68659310D01*
X138750689Y-68813953D01*
X136451978Y-68813953D01*
X136462847Y-68787713D01*
X136486596Y-68668321D01*
X136491689Y-68642720D01*
X136491689Y-30039029D01*
X136511374Y-29971990D01*
X136528004Y-29951352D01*
X137072486Y-29406869D01*
X137112713Y-29379991D01*
X137136368Y-29370194D01*
X137267478Y-29282589D01*
X137378978Y-29171089D01*
X137466583Y-29039979D01*
X137526926Y-28894297D01*
X137557689Y-28739642D01*
X137557689Y-28581958D01*
X137557689Y-28581956D01*
X137557689Y-28581955D01*
X137557688Y-28581953D01*
X137545883Y-28522605D01*
X137526926Y-28427303D01*
X137526924Y-28427298D01*
X137466586Y-28281627D01*
X137466579Y-28281614D01*
X137378978Y-28150511D01*
X137378975Y-28150507D01*
X137267481Y-28039013D01*
X137267477Y-28039010D01*
X137136374Y-27951409D01*
X137136361Y-27951402D01*
X136990690Y-27891064D01*
X136990678Y-27891061D01*
X136836034Y-27860300D01*
X136836031Y-27860300D01*
X136678347Y-27860300D01*
X136678344Y-27860300D01*
X136523699Y-27891061D01*
X136523687Y-27891064D01*
X136378016Y-27951402D01*
X136378003Y-27951409D01*
X136246900Y-28039010D01*
X136246896Y-28039013D01*
X136135402Y-28150507D01*
X136135396Y-28150515D01*
X136047796Y-28281618D01*
X136047795Y-28281619D01*
X136037994Y-28305280D01*
X136011116Y-28345503D01*
X135158238Y-29198381D01*
X135112212Y-29267264D01*
X135112213Y-29267265D01*
X135076103Y-29321308D01*
X135019532Y-29457882D01*
X135019529Y-29457892D01*
X134990689Y-29602879D01*
X134990689Y-67902565D01*
X134971004Y-67969604D01*
X134918200Y-68015359D01*
X134890881Y-68024182D01*
X134745697Y-68053061D01*
X134745687Y-68053064D01*
X134600016Y-68113402D01*
X134600003Y-68113409D01*
X134468900Y-68201010D01*
X134468896Y-68201013D01*
X134357402Y-68312507D01*
X134357399Y-68312511D01*
X134269798Y-68443614D01*
X134269791Y-68443627D01*
X134209453Y-68589298D01*
X134209450Y-68589310D01*
X134178689Y-68743953D01*
X134178689Y-68901646D01*
X134209450Y-69056289D01*
X134209453Y-69056301D01*
X134254249Y-69164448D01*
X134261718Y-69233917D01*
X134230443Y-69296396D01*
X134170354Y-69332048D01*
X134139688Y-69335900D01*
X131284817Y-69335900D01*
X131217778Y-69316215D01*
X131172023Y-69263411D01*
X131162079Y-69194253D01*
X131191104Y-69130697D01*
X131197120Y-69124234D01*
X131498140Y-68823216D01*
X131580273Y-68700295D01*
X131636847Y-68563713D01*
X131638279Y-68556516D01*
X131639141Y-68552185D01*
X131665688Y-68418722D01*
X131665689Y-68418720D01*
X131665689Y-29605266D01*
X131685374Y-29538227D01*
X131738178Y-29492472D01*
X131807336Y-29482528D01*
X131813881Y-29483649D01*
X131852344Y-29491300D01*
X131852347Y-29491300D01*
X132010033Y-29491300D01*
X132010034Y-29491299D01*
X132164686Y-29460537D01*
X132310368Y-29400194D01*
X132441478Y-29312589D01*
X132552978Y-29201089D01*
X132640583Y-29069979D01*
X132700926Y-28924297D01*
X132731689Y-28769642D01*
X132731689Y-28611958D01*
X132731689Y-28611955D01*
X132731688Y-28611953D01*
X132702732Y-28466384D01*
X132700926Y-28457303D01*
X132659820Y-28358063D01*
X132640586Y-28311627D01*
X132640579Y-28311614D01*
X132552978Y-28180511D01*
X132552975Y-28180507D01*
X132441481Y-28069013D01*
X132441477Y-28069010D01*
X132310374Y-27981409D01*
X132310361Y-27981402D01*
X132164690Y-27921064D01*
X132164678Y-27921061D01*
X132010034Y-27890300D01*
X132010031Y-27890300D01*
X131852347Y-27890300D01*
X131852344Y-27890300D01*
X131697700Y-27921060D01*
X131697695Y-27921062D01*
X131697693Y-27921062D01*
X131697692Y-27921063D01*
X131674033Y-27930862D01*
X131626585Y-27940300D01*
X131095269Y-27940300D01*
X130950281Y-27969140D01*
X130950271Y-27969143D01*
X130813700Y-28025712D01*
X130813687Y-28025719D01*
X130690773Y-28107848D01*
X130690769Y-28107851D01*
X130332239Y-28466380D01*
X130313330Y-28494681D01*
X130294671Y-28522607D01*
X130250103Y-28589307D01*
X130193532Y-28725882D01*
X130193529Y-28725892D01*
X130164689Y-28870879D01*
X130164689Y-67982570D01*
X130156043Y-68012014D01*
X130149520Y-68041998D01*
X130145766Y-68047011D01*
X130145004Y-68049609D01*
X130128369Y-68070252D01*
X130091892Y-68106728D01*
X130051667Y-68133606D01*
X130028015Y-68143403D01*
X130028003Y-68143409D01*
X129896900Y-68231010D01*
X129896896Y-68231013D01*
X129785402Y-68342507D01*
X129785399Y-68342511D01*
X129697798Y-68473614D01*
X129697791Y-68473627D01*
X129637453Y-68619298D01*
X129637450Y-68619310D01*
X129606689Y-68773953D01*
X129606689Y-68931646D01*
X129634024Y-69069064D01*
X129637452Y-69086297D01*
X129656507Y-69132301D01*
X129669823Y-69164447D01*
X129677292Y-69233917D01*
X129646017Y-69296396D01*
X129585928Y-69332048D01*
X129555262Y-69335900D01*
X127329089Y-69335900D01*
X127262050Y-69316215D01*
X127216295Y-69263411D01*
X127205089Y-69211900D01*
X127205089Y-67939959D01*
X127205090Y-67939946D01*
X127205090Y-67771845D01*
X127205090Y-67771843D01*
X127164166Y-67619115D01*
X127127158Y-67555016D01*
X127127158Y-67555015D01*
X127085111Y-67482187D01*
X127085110Y-67482186D01*
X127085109Y-67482184D01*
X126973305Y-67370380D01*
X126973304Y-67370379D01*
X126968974Y-67366049D01*
X126968963Y-67366039D01*
X124859529Y-65256605D01*
X124859527Y-65256602D01*
X124740656Y-65137731D01*
X124740648Y-65137725D01*
X124632946Y-65075544D01*
X124632945Y-65075543D01*
X124632945Y-65075544D01*
X124603724Y-65058673D01*
X124450996Y-65017749D01*
X124292882Y-65017749D01*
X124285286Y-65017749D01*
X124285270Y-65017750D01*
X119901689Y-65017750D01*
X119834650Y-64998065D01*
X119788895Y-64945261D01*
X119777689Y-64893750D01*
X119777689Y-64806955D01*
X119777688Y-64806953D01*
X119746927Y-64652310D01*
X119746926Y-64652303D01*
X119746924Y-64652298D01*
X119686586Y-64506627D01*
X119686579Y-64506614D01*
X119598978Y-64375511D01*
X119598975Y-64375507D01*
X119487481Y-64264013D01*
X119487477Y-64264010D01*
X119356374Y-64176409D01*
X119356361Y-64176402D01*
X119210690Y-64116064D01*
X119210678Y-64116061D01*
X119056034Y-64085300D01*
X119056031Y-64085300D01*
X118898347Y-64085300D01*
X118898344Y-64085300D01*
X118743699Y-64116061D01*
X118743687Y-64116064D01*
X118598016Y-64176402D01*
X118598003Y-64176409D01*
X118466900Y-64264010D01*
X118466896Y-64264013D01*
X118450479Y-64280431D01*
X118389156Y-64313916D01*
X118362798Y-64316750D01*
X116676201Y-64316750D01*
X116609162Y-64297065D01*
X116588520Y-64280431D01*
X112800424Y-60492335D01*
X112766939Y-60431012D01*
X112765067Y-60398734D01*
X112764689Y-60398734D01*
X112764689Y-60234955D01*
X112764688Y-60234953D01*
X112753570Y-60179061D01*
X112733926Y-60080303D01*
X112726185Y-60061614D01*
X112673586Y-59934627D01*
X112673579Y-59934614D01*
X112585978Y-59803511D01*
X112585975Y-59803507D01*
X112474481Y-59692013D01*
X112474477Y-59692010D01*
X112343374Y-59604409D01*
X112343361Y-59604402D01*
X112197690Y-59544064D01*
X112197678Y-59544061D01*
X112043034Y-59513300D01*
X112043031Y-59513300D01*
X111885347Y-59513300D01*
X111885344Y-59513300D01*
X111730699Y-59544061D01*
X111730687Y-59544064D01*
X111585016Y-59604402D01*
X111585003Y-59604409D01*
X111453900Y-59692010D01*
X111453896Y-59692013D01*
X111342402Y-59803507D01*
X111342397Y-59803513D01*
X111337355Y-59811060D01*
X111283742Y-59855865D01*
X111214417Y-59864571D01*
X111151390Y-59834415D01*
X111146573Y-59829849D01*
X109718879Y-58402155D01*
X109718877Y-58402152D01*
X109600006Y-58283281D01*
X109600005Y-58283280D01*
X109513193Y-58233160D01*
X109513193Y-58233159D01*
X109513189Y-58233158D01*
X109463074Y-58204223D01*
X109310346Y-58163299D01*
X109152232Y-58163299D01*
X109144636Y-58163299D01*
X109144620Y-58163300D01*
X106623815Y-58163300D01*
X106623799Y-58163299D01*
X106616203Y-58163299D01*
X106458089Y-58163299D01*
X106350733Y-58192065D01*
X106305356Y-58204224D01*
X106305355Y-58204225D01*
X106255242Y-58233159D01*
X106255241Y-58233160D01*
X106211835Y-58258220D01*
X106168431Y-58283279D01*
X106168428Y-58283281D01*
X106056624Y-58395086D01*
X104803006Y-59648703D01*
X104762778Y-59675583D01*
X104628012Y-59731404D01*
X104628003Y-59731409D01*
X104496900Y-59819010D01*
X104496896Y-59819013D01*
X104385402Y-59930507D01*
X104385399Y-59930511D01*
X104297798Y-60061614D01*
X104297791Y-60061627D01*
X104237453Y-60207298D01*
X104237450Y-60207310D01*
X104206689Y-60361953D01*
X104206689Y-60519646D01*
X104237450Y-60674289D01*
X104237453Y-60674301D01*
X104297791Y-60819972D01*
X104297798Y-60819985D01*
X104385399Y-60951088D01*
X104385402Y-60951092D01*
X104496896Y-61062586D01*
X104496900Y-61062589D01*
X104628003Y-61150190D01*
X104628016Y-61150197D01*
X104771145Y-61209482D01*
X104825549Y-61253322D01*
X104845310Y-61299851D01*
X104872450Y-61436291D01*
X104872453Y-61436301D01*
X104932791Y-61581972D01*
X104932798Y-61581985D01*
X105020399Y-61713088D01*
X105020402Y-61713092D01*
X105131896Y-61824586D01*
X105131900Y-61824589D01*
X105263003Y-61912190D01*
X105263016Y-61912197D01*
X105399141Y-61968581D01*
X105408692Y-61972537D01*
X105563342Y-62003299D01*
X105563345Y-62003300D01*
X105563347Y-62003300D01*
X105721033Y-62003300D01*
X105721034Y-62003299D01*
X105875686Y-61972537D01*
X106021368Y-61912194D01*
X106152478Y-61824589D01*
X106152481Y-61824586D01*
X106189508Y-61787560D01*
X106250831Y-61754075D01*
X106320523Y-61759059D01*
X106364870Y-61787560D01*
X106401896Y-61824586D01*
X106401900Y-61824589D01*
X106533003Y-61912190D01*
X106533016Y-61912197D01*
X106669141Y-61968581D01*
X106678692Y-61972537D01*
X106833342Y-62003299D01*
X106833345Y-62003300D01*
X106833347Y-62003300D01*
X106991033Y-62003300D01*
X106991034Y-62003299D01*
X107145686Y-61972537D01*
X107155236Y-61968580D01*
X107187865Y-61965072D01*
X107220336Y-61960404D01*
X107222423Y-61961357D01*
X107224705Y-61961112D01*
X107254037Y-61975795D01*
X107283892Y-61989429D01*
X107285133Y-61991360D01*
X107287184Y-61992387D01*
X107303918Y-62020591D01*
X107321666Y-62048207D01*
X107322101Y-62051236D01*
X107322837Y-62052476D01*
X107326689Y-62083142D01*
X107326689Y-62254073D01*
X107326688Y-62254091D01*
X107326688Y-62419797D01*
X107326687Y-62419797D01*
X107367612Y-62572528D01*
X107381785Y-62597076D01*
X107381784Y-62597076D01*
X107381785Y-62597077D01*
X107446664Y-62709452D01*
X107446670Y-62709460D01*
X107565538Y-62828328D01*
X107565544Y-62828333D01*
X113289385Y-68552174D01*
X113289395Y-68552185D01*
X113293725Y-68556515D01*
X113293726Y-68556516D01*
X113405530Y-68668320D01*
X113405532Y-68668321D01*
X113405536Y-68668324D01*
X113482429Y-68712718D01*
X113482430Y-68712718D01*
X113542461Y-68747377D01*
X113695188Y-68788300D01*
X113695189Y-68788300D01*
X114144747Y-68788300D01*
X114154762Y-68791240D01*
X114165127Y-68789986D01*
X114187715Y-68800916D01*
X114211786Y-68807985D01*
X114218621Y-68815873D01*
X114228019Y-68820421D01*
X114241112Y-68841829D01*
X114257541Y-68860789D01*
X114259026Y-68871119D01*
X114264474Y-68880027D01*
X114263914Y-68905112D01*
X114267485Y-68929947D01*
X114263106Y-68941297D01*
X114262915Y-68949879D01*
X114249754Y-68975911D01*
X114247541Y-68981649D01*
X114246313Y-68983469D01*
X114139138Y-69130984D01*
X114115513Y-69177350D01*
X114111264Y-69183649D01*
X114089967Y-69201286D01*
X114070980Y-69221391D01*
X114063128Y-69223514D01*
X114057453Y-69228215D01*
X114036270Y-69230779D01*
X114008470Y-69238300D01*
X111403286Y-69238300D01*
X111336247Y-69218615D01*
X111315605Y-69201981D01*
X103428763Y-61315139D01*
X103395278Y-61253816D01*
X103394827Y-61251649D01*
X103363927Y-61096310D01*
X103363926Y-61096303D01*
X103334302Y-61024783D01*
X103303586Y-60950627D01*
X103303579Y-60950614D01*
X103215978Y-60819511D01*
X103215975Y-60819507D01*
X103104481Y-60708013D01*
X103104477Y-60708010D01*
X102973374Y-60620409D01*
X102973361Y-60620402D01*
X102827690Y-60560064D01*
X102827678Y-60560061D01*
X102673034Y-60529300D01*
X102673031Y-60529300D01*
X102515347Y-60529300D01*
X102515344Y-60529300D01*
X102360699Y-60560061D01*
X102360687Y-60560064D01*
X102215016Y-60620402D01*
X102215005Y-60620408D01*
X102102790Y-60695388D01*
X102036113Y-60716265D01*
X101986449Y-60706847D01*
X101938686Y-60687063D01*
X101938682Y-60687062D01*
X101938677Y-60687060D01*
X101784034Y-60656300D01*
X101784031Y-60656300D01*
X101626347Y-60656300D01*
X101626344Y-60656300D01*
X101471699Y-60687061D01*
X101471687Y-60687064D01*
X101326016Y-60747402D01*
X101326003Y-60747409D01*
X101194900Y-60835010D01*
X101194896Y-60835013D01*
X101083402Y-60946507D01*
X101083399Y-60946511D01*
X100995798Y-61077614D01*
X100995791Y-61077627D01*
X100935453Y-61223298D01*
X100935450Y-61223310D01*
X100904689Y-61377953D01*
X96111071Y-61377953D01*
X96123119Y-61354308D01*
X96123120Y-61354305D01*
X96129865Y-61333548D01*
X96190086Y-61148205D01*
X96190086Y-61148204D01*
X96190087Y-61148201D01*
X96223989Y-60934156D01*
X96223989Y-60717444D01*
X96190087Y-60503399D01*
X96190086Y-60503395D01*
X96190086Y-60503394D01*
X96123120Y-60297294D01*
X96093625Y-60239406D01*
X96024734Y-60104200D01*
X95897353Y-59928875D01*
X95744114Y-59775636D01*
X95684917Y-59732627D01*
X95642252Y-59677299D01*
X95636273Y-59607685D01*
X95668878Y-59545890D01*
X95669983Y-59544768D01*
X95732674Y-59482078D01*
X95840080Y-59334246D01*
X95923037Y-59171433D01*
X95979504Y-58997647D01*
X95992208Y-58917433D01*
X96008089Y-58817172D01*
X96008089Y-58634431D01*
X95979504Y-58453960D01*
X95979504Y-58453957D01*
X95923037Y-58280171D01*
X95840080Y-58117358D01*
X95732674Y-57969526D01*
X95603465Y-57840317D01*
X95583922Y-57826118D01*
X95541257Y-57770790D01*
X95535278Y-57701176D01*
X95567883Y-57639381D01*
X95583919Y-57625486D01*
X95603465Y-57611286D01*
X95732674Y-57482077D01*
X95840080Y-57334245D01*
X95923037Y-57171432D01*
X95979504Y-56997646D01*
X95992208Y-56917432D01*
X96008089Y-56817171D01*
X96008089Y-56634430D01*
X95979504Y-56453959D01*
X95979504Y-56453956D01*
X95923037Y-56280170D01*
X95840080Y-56117357D01*
X95732674Y-55969525D01*
X95603465Y-55840316D01*
X95583922Y-55826117D01*
X95541257Y-55770789D01*
X95535278Y-55701175D01*
X95567883Y-55639380D01*
X95583919Y-55625485D01*
X95603465Y-55611285D01*
X95732674Y-55482076D01*
X95840080Y-55334244D01*
X95923037Y-55171431D01*
X95979504Y-54997645D01*
X95992208Y-54917431D01*
X96008089Y-54817170D01*
X96008089Y-54634429D01*
X95979504Y-54453958D01*
X95979504Y-54453955D01*
X95923037Y-54280169D01*
X95840080Y-54117356D01*
X95732674Y-53969524D01*
X95670121Y-53906971D01*
X95636637Y-53845649D01*
X95641621Y-53775957D01*
X95683493Y-53720024D01*
X95684770Y-53719081D01*
X95744114Y-53675966D01*
X95897353Y-53522727D01*
X96024734Y-53347402D01*
X96123119Y-53154310D01*
X96190087Y-52948203D01*
X96223989Y-52734158D01*
X96223989Y-52517446D01*
X96190087Y-52303401D01*
X96190086Y-52303397D01*
X96190086Y-52303396D01*
X96123120Y-52097296D01*
X96024733Y-51904201D01*
X95943589Y-51792516D01*
X95897353Y-51728877D01*
X95744114Y-51575638D01*
X95568789Y-51448257D01*
X95375694Y-51349870D01*
X95169593Y-51282904D01*
X95009056Y-51257477D01*
X94955545Y-51249002D01*
X94738833Y-51249002D01*
X94667484Y-51260302D01*
X94524786Y-51282904D01*
X94524783Y-51282904D01*
X94318683Y-51349870D01*
X94125588Y-51448257D01*
X93950261Y-51575640D01*
X93797027Y-51728874D01*
X93669644Y-51904201D01*
X93571257Y-52097296D01*
X93504291Y-52303396D01*
X93504291Y-52303399D01*
X93470389Y-52517446D01*
X93000000Y-52517446D01*
X93000000Y-46645953D01*
X103924689Y-46645953D01*
X103924689Y-46803646D01*
X103955450Y-46958289D01*
X103955453Y-46958301D01*
X104015791Y-47103972D01*
X104015798Y-47103985D01*
X104103791Y-47235674D01*
X104124669Y-47302351D01*
X104124689Y-47304565D01*
X104124689Y-50420130D01*
X104124688Y-50420148D01*
X104124688Y-50585854D01*
X104124687Y-50585854D01*
X104165612Y-50738585D01*
X104194547Y-50788700D01*
X104194548Y-50788704D01*
X104194549Y-50788704D01*
X104244668Y-50875514D01*
X104244670Y-50875517D01*
X104363538Y-50994385D01*
X104363544Y-50994390D01*
X114332614Y-60963460D01*
X114366099Y-61024783D01*
X114366550Y-61026949D01*
X114397450Y-61182291D01*
X114397453Y-61182301D01*
X114457791Y-61327972D01*
X114457798Y-61327985D01*
X114545399Y-61459088D01*
X114545402Y-61459092D01*
X114656896Y-61570586D01*
X114656900Y-61570589D01*
X114788003Y-61658190D01*
X114788016Y-61658197D01*
X114933687Y-61718535D01*
X114933692Y-61718537D01*
X115088342Y-61749299D01*
X115088345Y-61749300D01*
X115088347Y-61749300D01*
X115246032Y-61749300D01*
X115276166Y-61743305D01*
X115389594Y-61720743D01*
X115459183Y-61726970D01*
X115514361Y-61769832D01*
X115516886Y-61773470D01*
X115561396Y-61840084D01*
X115561402Y-61840092D01*
X115672896Y-61951586D01*
X115672900Y-61951589D01*
X115804003Y-62039190D01*
X115804016Y-62039197D01*
X115949687Y-62099535D01*
X115949692Y-62099537D01*
X116104342Y-62130299D01*
X116104345Y-62130300D01*
X116104347Y-62130300D01*
X116262033Y-62130300D01*
X116262034Y-62130299D01*
X116416686Y-62099537D01*
X116562368Y-62039194D01*
X116693478Y-61951589D01*
X116804978Y-61840089D01*
X116892583Y-61708979D01*
X116902380Y-61685324D01*
X116929258Y-61645097D01*
X123878141Y-54696216D01*
X123927375Y-54622529D01*
X123960273Y-54573295D01*
X124016847Y-54436713D01*
X124045689Y-54291718D01*
X124045689Y-30958030D01*
X124065374Y-30890991D01*
X124082008Y-30870349D01*
X125474738Y-29477619D01*
X125536061Y-29444134D01*
X125562419Y-29441300D01*
X126800585Y-29441300D01*
X126848033Y-29450737D01*
X126871692Y-29460537D01*
X126871697Y-29460538D01*
X126871700Y-29460539D01*
X127026342Y-29491299D01*
X127026345Y-29491300D01*
X127026347Y-29491300D01*
X127184033Y-29491300D01*
X127184034Y-29491299D01*
X127338686Y-29460537D01*
X127484368Y-29400194D01*
X127615478Y-29312589D01*
X127726978Y-29201089D01*
X127814583Y-29069979D01*
X127874926Y-28924297D01*
X127905689Y-28769642D01*
X127905689Y-28611958D01*
X127905689Y-28611955D01*
X127905688Y-28611953D01*
X127876732Y-28466384D01*
X127874926Y-28457303D01*
X127833820Y-28358063D01*
X127814586Y-28311627D01*
X127814579Y-28311614D01*
X127726978Y-28180511D01*
X127726975Y-28180507D01*
X127615481Y-28069013D01*
X127615477Y-28069010D01*
X127484374Y-27981409D01*
X127484361Y-27981402D01*
X127338690Y-27921064D01*
X127338678Y-27921061D01*
X127184034Y-27890300D01*
X127184031Y-27890300D01*
X127026347Y-27890300D01*
X127026344Y-27890300D01*
X126871700Y-27921060D01*
X126871695Y-27921062D01*
X126871693Y-27921062D01*
X126871692Y-27921063D01*
X126848033Y-27930862D01*
X126800585Y-27940300D01*
X125126269Y-27940300D01*
X124981281Y-27969140D01*
X124981275Y-27969142D01*
X124844697Y-28025714D01*
X124844685Y-28025721D01*
X124795458Y-28058613D01*
X124721777Y-28107844D01*
X124721769Y-28107850D01*
X122712239Y-30117381D01*
X122712233Y-30117389D01*
X122674875Y-30173299D01*
X122674876Y-30173300D01*
X122630102Y-30240308D01*
X122573532Y-30376882D01*
X122573529Y-30376892D01*
X122544689Y-30521879D01*
X122544689Y-53855569D01*
X122525004Y-53922608D01*
X122508370Y-53943250D01*
X115985592Y-60466027D01*
X115924269Y-60499512D01*
X115854577Y-60494528D01*
X115798644Y-60452656D01*
X115794809Y-60447237D01*
X115788978Y-60438511D01*
X115788975Y-60438507D01*
X115677481Y-60327013D01*
X115677477Y-60327010D01*
X115546374Y-60239409D01*
X115546361Y-60239402D01*
X115400690Y-60179064D01*
X115400680Y-60179061D01*
X115245338Y-60148161D01*
X115183427Y-60115776D01*
X115181849Y-60114225D01*
X105362008Y-50294384D01*
X105328523Y-50233061D01*
X105325689Y-50206703D01*
X105325689Y-47304565D01*
X105345374Y-47237526D01*
X105346587Y-47235674D01*
X105434579Y-47103985D01*
X105434579Y-47103984D01*
X105434583Y-47103979D01*
X105494926Y-46958297D01*
X105525689Y-46803642D01*
X105525689Y-46645958D01*
X105525689Y-46645955D01*
X105525688Y-46645953D01*
X105494927Y-46491310D01*
X105494926Y-46491303D01*
X105494924Y-46491298D01*
X105434586Y-46345627D01*
X105434579Y-46345614D01*
X105346978Y-46214511D01*
X105346975Y-46214507D01*
X105235481Y-46103013D01*
X105235477Y-46103010D01*
X105104374Y-46015409D01*
X105104361Y-46015402D01*
X104958690Y-45955064D01*
X104958678Y-45955061D01*
X104804034Y-45924300D01*
X104804031Y-45924300D01*
X104646347Y-45924300D01*
X104646344Y-45924300D01*
X104491699Y-45955061D01*
X104491687Y-45955064D01*
X104346016Y-46015402D01*
X104346003Y-46015409D01*
X104214900Y-46103010D01*
X104214896Y-46103013D01*
X104103402Y-46214507D01*
X104103399Y-46214511D01*
X104015798Y-46345614D01*
X104015791Y-46345627D01*
X103955453Y-46491298D01*
X103955450Y-46491310D01*
X103924689Y-46645953D01*
X93000000Y-46645953D01*
X93000000Y-39826783D01*
X97556689Y-39826783D01*
X97556689Y-41176801D01*
X97556690Y-41176818D01*
X97567189Y-41279596D01*
X97567190Y-41279599D01*
X97622374Y-41446131D01*
X97622375Y-41446134D01*
X97714477Y-41595456D01*
X97838533Y-41719512D01*
X97987855Y-41811614D01*
X98154392Y-41866799D01*
X98257180Y-41877300D01*
X99057197Y-41877299D01*
X99057205Y-41877298D01*
X99057208Y-41877298D01*
X99113491Y-41871548D01*
X99159986Y-41866799D01*
X99326523Y-41811614D01*
X99475845Y-41719512D01*
X99599901Y-41595456D01*
X99639770Y-41530816D01*
X99691714Y-41484094D01*
X99760677Y-41472871D01*
X99824759Y-41500714D01*
X99832988Y-41508234D01*
X99940586Y-41615832D01*
X100080664Y-41717604D01*
X100234933Y-41796208D01*
X100399604Y-41849714D01*
X100399603Y-41849714D01*
X100407188Y-41850915D01*
X100407189Y-41850914D01*
X100407189Y-40782130D01*
X100426934Y-40801875D01*
X100512444Y-40851244D01*
X100607819Y-40876800D01*
X100706559Y-40876800D01*
X100801934Y-40851244D01*
X100887444Y-40801875D01*
X100907189Y-40782130D01*
X100907189Y-41850915D01*
X100914773Y-41849714D01*
X101079444Y-41796208D01*
X101233713Y-41717604D01*
X101373791Y-41615832D01*
X101496221Y-41493402D01*
X101597993Y-41353324D01*
X101676597Y-41199057D01*
X101730103Y-41034384D01*
X101757189Y-40863371D01*
X101757189Y-40751800D01*
X100937519Y-40751800D01*
X100957264Y-40732055D01*
X101006633Y-40646545D01*
X101032189Y-40551170D01*
X101032189Y-40452430D01*
X101006633Y-40357055D01*
X100957264Y-40271545D01*
X100937519Y-40251800D01*
X101757189Y-40251800D01*
X101757189Y-40140228D01*
X101730103Y-39969215D01*
X101676597Y-39804542D01*
X101597993Y-39650275D01*
X101496221Y-39510197D01*
X101373791Y-39387767D01*
X101233713Y-39285995D01*
X101079446Y-39207391D01*
X100914778Y-39153887D01*
X100914770Y-39153885D01*
X100907189Y-39152684D01*
X100907189Y-40221470D01*
X100887444Y-40201725D01*
X100801934Y-40152356D01*
X100706559Y-40126800D01*
X100607819Y-40126800D01*
X100512444Y-40152356D01*
X100426934Y-40201725D01*
X100407189Y-40221470D01*
X100407189Y-39152684D01*
X100407188Y-39152684D01*
X100399607Y-39153885D01*
X100399599Y-39153887D01*
X100234931Y-39207391D01*
X100080664Y-39285995D01*
X99940590Y-39387764D01*
X99832988Y-39495366D01*
X99771665Y-39528850D01*
X99701973Y-39523866D01*
X99646040Y-39481994D01*
X99639774Y-39472788D01*
X99599901Y-39408144D01*
X99475845Y-39284088D01*
X99326523Y-39191986D01*
X99159986Y-39136801D01*
X99159984Y-39136800D01*
X99057199Y-39126300D01*
X98257187Y-39126300D01*
X98257169Y-39126301D01*
X98154392Y-39136800D01*
X98154389Y-39136801D01*
X97987857Y-39191985D01*
X97987852Y-39191987D01*
X97838531Y-39284089D01*
X97714478Y-39408142D01*
X97622376Y-39557463D01*
X97622375Y-39557466D01*
X97567190Y-39724003D01*
X97567190Y-39724004D01*
X97567189Y-39724004D01*
X97556689Y-39826783D01*
X93000000Y-39826783D01*
X93000000Y-35881659D01*
X93019685Y-35814620D01*
X93072489Y-35768865D01*
X93141647Y-35758921D01*
X93205203Y-35787946D01*
X93242977Y-35846724D01*
X93245440Y-35856747D01*
X93245539Y-35857074D01*
X93324689Y-36048158D01*
X93324694Y-36048168D01*
X93439599Y-36220135D01*
X93439602Y-36220139D01*
X93585849Y-36366386D01*
X93585853Y-36366389D01*
X93757820Y-36481294D01*
X93757830Y-36481299D01*
X93948914Y-36560449D01*
X93948922Y-36560451D01*
X94151768Y-36600799D01*
X94151772Y-36600800D01*
X94305189Y-36600800D01*
X94305189Y-35850800D01*
X94805189Y-35850800D01*
X94805189Y-36600800D01*
X94958606Y-36600800D01*
X94958609Y-36600799D01*
X95161455Y-36560451D01*
X95161463Y-36560449D01*
X95352547Y-36481299D01*
X95352557Y-36481294D01*
X95524524Y-36366389D01*
X95524528Y-36366386D01*
X95670775Y-36220139D01*
X95670778Y-36220135D01*
X95785683Y-36048168D01*
X95785688Y-36048158D01*
X95864837Y-35857076D01*
X95864838Y-35857074D01*
X95876032Y-35800800D01*
X95022177Y-35800800D01*
X95039394Y-35790860D01*
X95095249Y-35735005D01*
X95134745Y-35666596D01*
X95155189Y-35590296D01*
X95155189Y-35511304D01*
X95134745Y-35435004D01*
X95095249Y-35366595D01*
X95039394Y-35310740D01*
X95022177Y-35300800D01*
X95876032Y-35300800D01*
X97034346Y-35300800D01*
X97888201Y-35300800D01*
X97870984Y-35310740D01*
X97815129Y-35366595D01*
X97775633Y-35435004D01*
X97755189Y-35511304D01*
X97755189Y-35590296D01*
X97775633Y-35666596D01*
X97815129Y-35735005D01*
X97870984Y-35790860D01*
X97888201Y-35800800D01*
X97034346Y-35800800D01*
X97045539Y-35857074D01*
X97045540Y-35857076D01*
X97124689Y-36048158D01*
X97124694Y-36048168D01*
X97239599Y-36220135D01*
X97239602Y-36220139D01*
X97385849Y-36366386D01*
X97385853Y-36366389D01*
X97557820Y-36481294D01*
X97557830Y-36481299D01*
X97748914Y-36560449D01*
X97748922Y-36560451D01*
X97951768Y-36600799D01*
X97951772Y-36600800D01*
X98105189Y-36600800D01*
X98105189Y-35850800D01*
X98605189Y-35850800D01*
X98605189Y-36600800D01*
X98758606Y-36600800D01*
X98758609Y-36600799D01*
X98961455Y-36560451D01*
X98961463Y-36560449D01*
X99152547Y-36481299D01*
X99152557Y-36481294D01*
X99324524Y-36366389D01*
X99324528Y-36366386D01*
X99470775Y-36220139D01*
X99470778Y-36220135D01*
X99585683Y-36048168D01*
X99585688Y-36048158D01*
X99664837Y-35857076D01*
X99664838Y-35857074D01*
X99676032Y-35800800D01*
X98822177Y-35800800D01*
X98839394Y-35790860D01*
X98895249Y-35735005D01*
X98934745Y-35666596D01*
X98955189Y-35590296D01*
X98955189Y-35511304D01*
X98934745Y-35435004D01*
X98895249Y-35366595D01*
X98839394Y-35310740D01*
X98822177Y-35300800D01*
X99676032Y-35300800D01*
X99664838Y-35244525D01*
X99664837Y-35244523D01*
X99585688Y-35053441D01*
X99585683Y-35053431D01*
X99470778Y-34881464D01*
X99470775Y-34881460D01*
X99324528Y-34735213D01*
X99324524Y-34735210D01*
X99152557Y-34620305D01*
X99152547Y-34620300D01*
X98961463Y-34541150D01*
X98961455Y-34541148D01*
X98758609Y-34500800D01*
X98605189Y-34500800D01*
X98605189Y-35250800D01*
X98105189Y-35250800D01*
X98105189Y-34500800D01*
X97951768Y-34500800D01*
X97748922Y-34541148D01*
X97748914Y-34541150D01*
X97557830Y-34620300D01*
X97557820Y-34620305D01*
X97385853Y-34735210D01*
X97385849Y-34735213D01*
X97239602Y-34881460D01*
X97239599Y-34881464D01*
X97124694Y-35053431D01*
X97124689Y-35053441D01*
X97045540Y-35244523D01*
X97045539Y-35244525D01*
X97034346Y-35300800D01*
X95876032Y-35300800D01*
X95864838Y-35244525D01*
X95864837Y-35244523D01*
X95785688Y-35053441D01*
X95785683Y-35053431D01*
X95670778Y-34881464D01*
X95670775Y-34881460D01*
X95524528Y-34735213D01*
X95524524Y-34735210D01*
X95352557Y-34620305D01*
X95352547Y-34620300D01*
X95161463Y-34541150D01*
X95161455Y-34541148D01*
X94958609Y-34500800D01*
X94805189Y-34500800D01*
X94805189Y-35250800D01*
X94305189Y-35250800D01*
X94305189Y-34500800D01*
X94151768Y-34500800D01*
X93948922Y-34541148D01*
X93948914Y-34541150D01*
X93757830Y-34620300D01*
X93757820Y-34620305D01*
X93585853Y-34735210D01*
X93585849Y-34735213D01*
X93439602Y-34881460D01*
X93439599Y-34881464D01*
X93324694Y-35053431D01*
X93324689Y-35053441D01*
X93245539Y-35244525D01*
X93243770Y-35250358D01*
X93242553Y-35249988D01*
X93213231Y-35306043D01*
X93152515Y-35340617D01*
X93082746Y-35336876D01*
X93026074Y-35296009D01*
X93000493Y-35230991D01*
X93000000Y-35219940D01*
X93000000Y-27241659D01*
X93019685Y-27174620D01*
X93072489Y-27128865D01*
X93141647Y-27118921D01*
X93205203Y-27147946D01*
X93242977Y-27206724D01*
X93245440Y-27216747D01*
X93245539Y-27217074D01*
X93324689Y-27408158D01*
X93324694Y-27408168D01*
X93439599Y-27580135D01*
X93439602Y-27580139D01*
X93585849Y-27726386D01*
X93585853Y-27726389D01*
X93757820Y-27841294D01*
X93757830Y-27841299D01*
X93948914Y-27920449D01*
X93948922Y-27920451D01*
X94151768Y-27960799D01*
X94151772Y-27960800D01*
X94305189Y-27960800D01*
X94305189Y-27210800D01*
X94805189Y-27210800D01*
X94805189Y-27960800D01*
X94958606Y-27960800D01*
X94958609Y-27960799D01*
X95161455Y-27920451D01*
X95161463Y-27920449D01*
X95352547Y-27841299D01*
X95352557Y-27841294D01*
X95524524Y-27726389D01*
X95524528Y-27726386D01*
X95670775Y-27580139D01*
X95670778Y-27580135D01*
X95785683Y-27408168D01*
X95785688Y-27408158D01*
X95864837Y-27217076D01*
X95864838Y-27217074D01*
X95876032Y-27160800D01*
X95022177Y-27160800D01*
X95039394Y-27150860D01*
X95095249Y-27095005D01*
X95134745Y-27026596D01*
X95155189Y-26950296D01*
X95155189Y-26871304D01*
X95134745Y-26795004D01*
X95095249Y-26726595D01*
X95039394Y-26670740D01*
X95022177Y-26660800D01*
X95876032Y-26660800D01*
X97034346Y-26660800D01*
X97888201Y-26660800D01*
X97870984Y-26670740D01*
X97815129Y-26726595D01*
X97775633Y-26795004D01*
X97755189Y-26871304D01*
X97755189Y-26950296D01*
X97775633Y-27026596D01*
X97815129Y-27095005D01*
X97870984Y-27150860D01*
X97888201Y-27160800D01*
X97034346Y-27160800D01*
X97045539Y-27217074D01*
X97045540Y-27217076D01*
X97124689Y-27408158D01*
X97124694Y-27408168D01*
X97239599Y-27580135D01*
X97239602Y-27580139D01*
X97385849Y-27726386D01*
X97385853Y-27726389D01*
X97557820Y-27841294D01*
X97557830Y-27841299D01*
X97748914Y-27920449D01*
X97748922Y-27920451D01*
X97951768Y-27960799D01*
X97951772Y-27960800D01*
X98105189Y-27960800D01*
X98105189Y-27210800D01*
X98605189Y-27210800D01*
X98605189Y-27960800D01*
X98758606Y-27960800D01*
X98758609Y-27960799D01*
X98961455Y-27920451D01*
X98961463Y-27920449D01*
X99152547Y-27841299D01*
X99152557Y-27841294D01*
X99324524Y-27726389D01*
X99324528Y-27726386D01*
X99470775Y-27580139D01*
X99470778Y-27580135D01*
X99585683Y-27408168D01*
X99585688Y-27408158D01*
X99664837Y-27217076D01*
X99664838Y-27217074D01*
X99676032Y-27160800D01*
X98822177Y-27160800D01*
X98839394Y-27150860D01*
X98895249Y-27095005D01*
X98899320Y-27087953D01*
X101158689Y-27087953D01*
X101158689Y-27245646D01*
X101189450Y-27400289D01*
X101189453Y-27400301D01*
X101249791Y-27545972D01*
X101249798Y-27545985D01*
X101337399Y-27677088D01*
X101337402Y-27677092D01*
X101448896Y-27788586D01*
X101504437Y-27825698D01*
X101549241Y-27879311D01*
X101557948Y-27948636D01*
X101527793Y-28011663D01*
X101504437Y-28031902D01*
X101448896Y-28069013D01*
X101337402Y-28180507D01*
X101337399Y-28180511D01*
X101249798Y-28311614D01*
X101249791Y-28311627D01*
X101189453Y-28457298D01*
X101189450Y-28457310D01*
X101158689Y-28611953D01*
X101158689Y-28769646D01*
X101189450Y-28924289D01*
X101189453Y-28924301D01*
X101249791Y-29069972D01*
X101249798Y-29069985D01*
X101337399Y-29201088D01*
X101337402Y-29201092D01*
X101448896Y-29312586D01*
X101448900Y-29312589D01*
X101580003Y-29400190D01*
X101580016Y-29400197D01*
X101702035Y-29450738D01*
X101725692Y-29460537D01*
X101790336Y-29473395D01*
X101881038Y-29491438D01*
X101942949Y-29523823D01*
X101944528Y-29525374D01*
X105386370Y-32967216D01*
X105419855Y-33028539D01*
X105422689Y-33054897D01*
X105422689Y-37240130D01*
X105422688Y-37240148D01*
X105422688Y-37405854D01*
X105422687Y-37405854D01*
X105463612Y-37558585D01*
X105488274Y-37601299D01*
X105488275Y-37601303D01*
X105488276Y-37601303D01*
X105542668Y-37695514D01*
X105542670Y-37695517D01*
X105661538Y-37814385D01*
X105661544Y-37814390D01*
X105696614Y-37849460D01*
X105730099Y-37910783D01*
X105730550Y-37912949D01*
X105761450Y-38068291D01*
X105761453Y-38068301D01*
X105821791Y-38213972D01*
X105821798Y-38213985D01*
X105909399Y-38345088D01*
X105909402Y-38345092D01*
X106020896Y-38456586D01*
X106020900Y-38456589D01*
X106152003Y-38544190D01*
X106152016Y-38544197D01*
X106297687Y-38604535D01*
X106297692Y-38604537D01*
X106452342Y-38635299D01*
X106452345Y-38635300D01*
X106452347Y-38635300D01*
X106610033Y-38635300D01*
X106610034Y-38635299D01*
X106764686Y-38604537D01*
X106910368Y-38544194D01*
X107041478Y-38456589D01*
X107152978Y-38345089D01*
X107240583Y-38213979D01*
X107300926Y-38068297D01*
X107331689Y-37913642D01*
X107331689Y-37755958D01*
X107331689Y-37755955D01*
X107331688Y-37755953D01*
X107316655Y-37680377D01*
X110587164Y-37680377D01*
X110692425Y-37723978D01*
X110692429Y-37723979D01*
X110837315Y-37752799D01*
X110837318Y-37752800D01*
X110985060Y-37752800D01*
X110985062Y-37752799D01*
X111129949Y-37723979D01*
X111129964Y-37723975D01*
X111235213Y-37680378D01*
X111235213Y-37680377D01*
X111987164Y-37680377D01*
X112092425Y-37723978D01*
X112092429Y-37723979D01*
X112237315Y-37752799D01*
X112237318Y-37752800D01*
X112385060Y-37752800D01*
X112385062Y-37752799D01*
X112529949Y-37723979D01*
X112529964Y-37723975D01*
X112635213Y-37680378D01*
X112635213Y-37680377D01*
X112311190Y-37356354D01*
X112311189Y-37356354D01*
X111987164Y-37680377D01*
X111235213Y-37680377D01*
X110911190Y-37356354D01*
X110911189Y-37356354D01*
X110587164Y-37680377D01*
X107316655Y-37680377D01*
X107313349Y-37663754D01*
X107300926Y-37601303D01*
X107300924Y-37601298D01*
X107240586Y-37455627D01*
X107240579Y-37455614D01*
X107152978Y-37324511D01*
X107152975Y-37324507D01*
X107133383Y-37304915D01*
X107099898Y-37243592D01*
X107104882Y-37173900D01*
X107146754Y-37117967D01*
X107196869Y-37095617D01*
X107272686Y-37080537D01*
X107418368Y-37020194D01*
X107549478Y-36932589D01*
X107553141Y-36928926D01*
X110161189Y-36928926D01*
X110161189Y-37076673D01*
X110190009Y-37221559D01*
X110190011Y-37221567D01*
X110233610Y-37326824D01*
X110557635Y-37002800D01*
X110557635Y-37002799D01*
X110537745Y-36982909D01*
X110811189Y-36982909D01*
X110811189Y-37022691D01*
X110826413Y-37059445D01*
X110854544Y-37087576D01*
X110891298Y-37102800D01*
X110931080Y-37102800D01*
X110967834Y-37087576D01*
X110995965Y-37059445D01*
X111011189Y-37022691D01*
X111011189Y-37002799D01*
X111264743Y-37002799D01*
X111264743Y-37002801D01*
X111589118Y-37327176D01*
X111633258Y-37327176D01*
X111957635Y-37002800D01*
X111937744Y-36982909D01*
X112211189Y-36982909D01*
X112211189Y-37022691D01*
X112226413Y-37059445D01*
X112254544Y-37087576D01*
X112291298Y-37102800D01*
X112331080Y-37102800D01*
X112367834Y-37087576D01*
X112395965Y-37059445D01*
X112411189Y-37022691D01*
X112411189Y-37002799D01*
X112664743Y-37002799D01*
X112664743Y-37002801D01*
X112988766Y-37326824D01*
X112988767Y-37326824D01*
X113032364Y-37221575D01*
X113032368Y-37221560D01*
X113061188Y-37076673D01*
X113061189Y-37076671D01*
X113061189Y-36928928D01*
X113061188Y-36928926D01*
X113032368Y-36784040D01*
X113032367Y-36784036D01*
X112988766Y-36678775D01*
X112664743Y-37002799D01*
X112411189Y-37002799D01*
X112411189Y-36982909D01*
X112395965Y-36946155D01*
X112367834Y-36918024D01*
X112331080Y-36902800D01*
X112291298Y-36902800D01*
X112254544Y-36918024D01*
X112226413Y-36946155D01*
X112211189Y-36982909D01*
X111937744Y-36982909D01*
X111633257Y-36678422D01*
X111589119Y-36678422D01*
X111264743Y-37002799D01*
X111011189Y-37002799D01*
X111011189Y-36982909D01*
X110995965Y-36946155D01*
X110967834Y-36918024D01*
X110931080Y-36902800D01*
X110891298Y-36902800D01*
X110854544Y-36918024D01*
X110826413Y-36946155D01*
X110811189Y-36982909D01*
X110537745Y-36982909D01*
X110233610Y-36678774D01*
X110233609Y-36678774D01*
X110190012Y-36784028D01*
X110190009Y-36784040D01*
X110161189Y-36928926D01*
X107553141Y-36928926D01*
X107579267Y-36902800D01*
X107646910Y-36835158D01*
X107660975Y-36821092D01*
X107660978Y-36821089D01*
X107748583Y-36689979D01*
X107808926Y-36544297D01*
X107837072Y-36402800D01*
X110664743Y-36402800D01*
X110911189Y-36649246D01*
X111157635Y-36402800D01*
X112064743Y-36402800D01*
X112311189Y-36649246D01*
X112557635Y-36402800D01*
X112311189Y-36156354D01*
X112064743Y-36402800D01*
X111157635Y-36402800D01*
X110911189Y-36156354D01*
X110664743Y-36402800D01*
X107837072Y-36402800D01*
X107839689Y-36389642D01*
X107839689Y-36231958D01*
X107839689Y-36231955D01*
X107839688Y-36231953D01*
X107808927Y-36077310D01*
X107808926Y-36077303D01*
X107785836Y-36021559D01*
X107748586Y-35931627D01*
X107748579Y-35931614D01*
X107660983Y-35800518D01*
X107660981Y-35800515D01*
X107660978Y-35800511D01*
X107660973Y-35800506D01*
X107660969Y-35800501D01*
X107589394Y-35728926D01*
X110161189Y-35728926D01*
X110161189Y-35876673D01*
X110190009Y-36021559D01*
X110190011Y-36021567D01*
X110233610Y-36126824D01*
X110557635Y-35802800D01*
X110557635Y-35802799D01*
X110537745Y-35782909D01*
X110811189Y-35782909D01*
X110811189Y-35822691D01*
X110826413Y-35859445D01*
X110854544Y-35887576D01*
X110891298Y-35902800D01*
X110931080Y-35902800D01*
X110967834Y-35887576D01*
X110995965Y-35859445D01*
X111011189Y-35822691D01*
X111011189Y-35802799D01*
X111264743Y-35802799D01*
X111264743Y-35802801D01*
X111589118Y-36127176D01*
X111633258Y-36127176D01*
X111957635Y-35802800D01*
X111937744Y-35782909D01*
X112211189Y-35782909D01*
X112211189Y-35822691D01*
X112226413Y-35859445D01*
X112254544Y-35887576D01*
X112291298Y-35902800D01*
X112331080Y-35902800D01*
X112367834Y-35887576D01*
X112395965Y-35859445D01*
X112411189Y-35822691D01*
X112411189Y-35802799D01*
X112664743Y-35802799D01*
X112664743Y-35802801D01*
X112988766Y-36126824D01*
X112988767Y-36126824D01*
X113032364Y-36021575D01*
X113032368Y-36021560D01*
X113061188Y-35876673D01*
X113061189Y-35876671D01*
X113061189Y-35728928D01*
X113061188Y-35728926D01*
X113032368Y-35584040D01*
X113032367Y-35584036D01*
X112988766Y-35478775D01*
X112664743Y-35802799D01*
X112411189Y-35802799D01*
X112411189Y-35782909D01*
X112395965Y-35746155D01*
X112367834Y-35718024D01*
X112331080Y-35702800D01*
X112291298Y-35702800D01*
X112254544Y-35718024D01*
X112226413Y-35746155D01*
X112211189Y-35782909D01*
X111937744Y-35782909D01*
X111633257Y-35478422D01*
X111589119Y-35478422D01*
X111264743Y-35802799D01*
X111011189Y-35802799D01*
X111011189Y-35782909D01*
X110995965Y-35746155D01*
X110967834Y-35718024D01*
X110931080Y-35702800D01*
X110891298Y-35702800D01*
X110854544Y-35718024D01*
X110826413Y-35746155D01*
X110811189Y-35782909D01*
X110537745Y-35782909D01*
X110233610Y-35478774D01*
X110233609Y-35478774D01*
X110190012Y-35584028D01*
X110190009Y-35584040D01*
X110161189Y-35728926D01*
X107589394Y-35728926D01*
X107549481Y-35689013D01*
X107549477Y-35689010D01*
X107440798Y-35616392D01*
X107395993Y-35562779D01*
X107385689Y-35513290D01*
X107385689Y-35202800D01*
X110664743Y-35202800D01*
X110911189Y-35449246D01*
X111157635Y-35202800D01*
X112064743Y-35202800D01*
X112311189Y-35449246D01*
X112557635Y-35202800D01*
X112311189Y-34956354D01*
X112064743Y-35202800D01*
X111157635Y-35202800D01*
X110911189Y-34956354D01*
X110664743Y-35202800D01*
X107385689Y-35202800D01*
X107385689Y-34528926D01*
X110161189Y-34528926D01*
X110161189Y-34676673D01*
X110190009Y-34821559D01*
X110190011Y-34821567D01*
X110233610Y-34926824D01*
X110557635Y-34602800D01*
X110557635Y-34602799D01*
X110537745Y-34582909D01*
X110811189Y-34582909D01*
X110811189Y-34622691D01*
X110826413Y-34659445D01*
X110854544Y-34687576D01*
X110891298Y-34702800D01*
X110931080Y-34702800D01*
X110967834Y-34687576D01*
X110995965Y-34659445D01*
X111011189Y-34622691D01*
X111011189Y-34602799D01*
X111264743Y-34602799D01*
X111264743Y-34602801D01*
X111589118Y-34927176D01*
X111633258Y-34927176D01*
X111957635Y-34602800D01*
X111937744Y-34582909D01*
X112211189Y-34582909D01*
X112211189Y-34622691D01*
X112226413Y-34659445D01*
X112254544Y-34687576D01*
X112291298Y-34702800D01*
X112331080Y-34702800D01*
X112367834Y-34687576D01*
X112395965Y-34659445D01*
X112411189Y-34622691D01*
X112411189Y-34602799D01*
X112664743Y-34602799D01*
X112664743Y-34602801D01*
X112988766Y-34926824D01*
X112988767Y-34926824D01*
X113032364Y-34821575D01*
X113032368Y-34821560D01*
X113061188Y-34676673D01*
X113061189Y-34676671D01*
X113061189Y-34528928D01*
X113061188Y-34528926D01*
X113032368Y-34384040D01*
X113032367Y-34384036D01*
X112988766Y-34278775D01*
X112664743Y-34602799D01*
X112411189Y-34602799D01*
X112411189Y-34582909D01*
X112395965Y-34546155D01*
X112367834Y-34518024D01*
X112331080Y-34502800D01*
X112291298Y-34502800D01*
X112254544Y-34518024D01*
X112226413Y-34546155D01*
X112211189Y-34582909D01*
X111937744Y-34582909D01*
X111633257Y-34278422D01*
X111589119Y-34278422D01*
X111264743Y-34602799D01*
X111011189Y-34602799D01*
X111011189Y-34582909D01*
X110995965Y-34546155D01*
X110967834Y-34518024D01*
X110931080Y-34502800D01*
X110891298Y-34502800D01*
X110854544Y-34518024D01*
X110826413Y-34546155D01*
X110811189Y-34582909D01*
X110537745Y-34582909D01*
X110233610Y-34278774D01*
X110233609Y-34278774D01*
X110190012Y-34384028D01*
X110190009Y-34384040D01*
X110161189Y-34528926D01*
X107385689Y-34528926D01*
X107385689Y-33925220D01*
X110587163Y-33925220D01*
X110587163Y-33925221D01*
X110911189Y-34249246D01*
X110911190Y-34249246D01*
X111235213Y-33925221D01*
X111235211Y-33925220D01*
X111987163Y-33925220D01*
X111987163Y-33925221D01*
X112311189Y-34249246D01*
X112311190Y-34249246D01*
X112635213Y-33925221D01*
X112529956Y-33881622D01*
X112529948Y-33881620D01*
X112385061Y-33852800D01*
X112237317Y-33852800D01*
X112092429Y-33881620D01*
X112092417Y-33881623D01*
X111987163Y-33925220D01*
X111235211Y-33925220D01*
X111129956Y-33881622D01*
X111129948Y-33881620D01*
X110985061Y-33852800D01*
X110837317Y-33852800D01*
X110692429Y-33881620D01*
X110692417Y-33881623D01*
X110587163Y-33925220D01*
X107385689Y-33925220D01*
X107385689Y-32081860D01*
X107385690Y-32081847D01*
X107385690Y-31913744D01*
X107344765Y-31761014D01*
X107344762Y-31761009D01*
X107265713Y-31624090D01*
X107265707Y-31624082D01*
X102793762Y-27152137D01*
X102760277Y-27090814D01*
X102759826Y-27088647D01*
X102728927Y-26933310D01*
X102728926Y-26933303D01*
X102728924Y-26933298D01*
X102668586Y-26787627D01*
X102668579Y-26787614D01*
X102580978Y-26656511D01*
X102580975Y-26656507D01*
X102469481Y-26545013D01*
X102469477Y-26545010D01*
X102338374Y-26457409D01*
X102338361Y-26457402D01*
X102192690Y-26397064D01*
X102192678Y-26397061D01*
X102038034Y-26366300D01*
X102038031Y-26366300D01*
X101880347Y-26366300D01*
X101880344Y-26366300D01*
X101725699Y-26397061D01*
X101725687Y-26397064D01*
X101580016Y-26457402D01*
X101580003Y-26457409D01*
X101448900Y-26545010D01*
X101448896Y-26545013D01*
X101337402Y-26656507D01*
X101337399Y-26656511D01*
X101249798Y-26787614D01*
X101249791Y-26787627D01*
X101189453Y-26933298D01*
X101189450Y-26933310D01*
X101158689Y-27087953D01*
X98899320Y-27087953D01*
X98934745Y-27026596D01*
X98955189Y-26950296D01*
X98955189Y-26871304D01*
X98934745Y-26795004D01*
X98895249Y-26726595D01*
X98839394Y-26670740D01*
X98822177Y-26660800D01*
X99676032Y-26660800D01*
X99664838Y-26604525D01*
X99664837Y-26604523D01*
X99585688Y-26413441D01*
X99585683Y-26413431D01*
X99470778Y-26241464D01*
X99470775Y-26241460D01*
X99324528Y-26095213D01*
X99324524Y-26095210D01*
X99152557Y-25980305D01*
X99152547Y-25980300D01*
X98961463Y-25901150D01*
X98961455Y-25901148D01*
X98758609Y-25860800D01*
X98605189Y-25860800D01*
X98605189Y-26610800D01*
X98105189Y-26610800D01*
X98105189Y-25860800D01*
X97951768Y-25860800D01*
X97748922Y-25901148D01*
X97748914Y-25901150D01*
X97557830Y-25980300D01*
X97557820Y-25980305D01*
X97385853Y-26095210D01*
X97385849Y-26095213D01*
X97239602Y-26241460D01*
X97239599Y-26241464D01*
X97124694Y-26413431D01*
X97124689Y-26413441D01*
X97045540Y-26604523D01*
X97045539Y-26604525D01*
X97034346Y-26660800D01*
X95876032Y-26660800D01*
X95864838Y-26604525D01*
X95864837Y-26604523D01*
X95785688Y-26413441D01*
X95785683Y-26413431D01*
X95670778Y-26241464D01*
X95670775Y-26241460D01*
X95524528Y-26095213D01*
X95524524Y-26095210D01*
X95352557Y-25980305D01*
X95352547Y-25980300D01*
X95161463Y-25901150D01*
X95161455Y-25901148D01*
X94958609Y-25860800D01*
X94805189Y-25860800D01*
X94805189Y-26610800D01*
X94305189Y-26610800D01*
X94305189Y-25860800D01*
X94151768Y-25860800D01*
X93948922Y-25901148D01*
X93948914Y-25901150D01*
X93757830Y-25980300D01*
X93757820Y-25980305D01*
X93585853Y-26095210D01*
X93585849Y-26095213D01*
X93439602Y-26241460D01*
X93439599Y-26241464D01*
X93324694Y-26413431D01*
X93324689Y-26413441D01*
X93245539Y-26604525D01*
X93243770Y-26610358D01*
X93242553Y-26609988D01*
X93213231Y-26666043D01*
X93152515Y-26700617D01*
X93082746Y-26696876D01*
X93026074Y-26656009D01*
X93000493Y-26590991D01*
X93000000Y-26579940D01*
X93000000Y-22859568D01*
X93499500Y-22859568D01*
X93499500Y-23140431D01*
X93530942Y-23419494D01*
X93530945Y-23419512D01*
X93593439Y-23693317D01*
X93593443Y-23693329D01*
X93686200Y-23958411D01*
X93808053Y-24211442D01*
X93808055Y-24211445D01*
X93957477Y-24449248D01*
X94132584Y-24668825D01*
X94331175Y-24867416D01*
X94550752Y-25042523D01*
X94788555Y-25191945D01*
X95041592Y-25313801D01*
X95240680Y-25383465D01*
X95306670Y-25406556D01*
X95306682Y-25406560D01*
X95580491Y-25469055D01*
X95580497Y-25469055D01*
X95580505Y-25469057D01*
X95766547Y-25490018D01*
X95859569Y-25500499D01*
X95859572Y-25500500D01*
X95859575Y-25500500D01*
X96140428Y-25500500D01*
X96140429Y-25500499D01*
X96283055Y-25484429D01*
X96419494Y-25469057D01*
X96419499Y-25469056D01*
X96419509Y-25469055D01*
X96693318Y-25406560D01*
X96958408Y-25313801D01*
X97211445Y-25191945D01*
X97449248Y-25042523D01*
X97668825Y-24867416D01*
X97867416Y-24668825D01*
X98042523Y-24449248D01*
X98191945Y-24211445D01*
X98313801Y-23958408D01*
X98406560Y-23693318D01*
X98469055Y-23419509D01*
X98500500Y-23140425D01*
X98500500Y-22859575D01*
X98500499Y-22859568D01*
X183499500Y-22859568D01*
X183499500Y-23140431D01*
X183530942Y-23419494D01*
X183530945Y-23419512D01*
X183593439Y-23693317D01*
X183593443Y-23693329D01*
X183686200Y-23958411D01*
X183808053Y-24211442D01*
X183808055Y-24211445D01*
X183957477Y-24449248D01*
X184132584Y-24668825D01*
X184331175Y-24867416D01*
X184550752Y-25042523D01*
X184788555Y-25191945D01*
X185041592Y-25313801D01*
X185240680Y-25383465D01*
X185306670Y-25406556D01*
X185306682Y-25406560D01*
X185580491Y-25469055D01*
X185580497Y-25469055D01*
X185580505Y-25469057D01*
X185766547Y-25490018D01*
X185859569Y-25500499D01*
X185859572Y-25500500D01*
X185859575Y-25500500D01*
X186140428Y-25500500D01*
X186140429Y-25500499D01*
X186283055Y-25484429D01*
X186419494Y-25469057D01*
X186419499Y-25469056D01*
X186419509Y-25469055D01*
X186693318Y-25406560D01*
X186958408Y-25313801D01*
X187211445Y-25191945D01*
X187449248Y-25042523D01*
X187668825Y-24867416D01*
X187867416Y-24668825D01*
X188042523Y-24449248D01*
X188191945Y-24211445D01*
X188313801Y-23958408D01*
X188406560Y-23693318D01*
X188469055Y-23419509D01*
X188500500Y-23140425D01*
X188500500Y-22859575D01*
X188469055Y-22580491D01*
X188406560Y-22306682D01*
X188313801Y-22041592D01*
X188191945Y-21788555D01*
X188042523Y-21550752D01*
X187867416Y-21331175D01*
X187668825Y-21132584D01*
X187449248Y-20957477D01*
X187211445Y-20808055D01*
X187211442Y-20808053D01*
X186958411Y-20686200D01*
X186693329Y-20593443D01*
X186693317Y-20593439D01*
X186419512Y-20530945D01*
X186419494Y-20530942D01*
X186140431Y-20499500D01*
X186140425Y-20499500D01*
X185859575Y-20499500D01*
X185859568Y-20499500D01*
X185580505Y-20530942D01*
X185580487Y-20530945D01*
X185306682Y-20593439D01*
X185306670Y-20593443D01*
X185041588Y-20686200D01*
X184788557Y-20808053D01*
X184550753Y-20957476D01*
X184331175Y-21132583D01*
X184132583Y-21331175D01*
X183957476Y-21550753D01*
X183808053Y-21788557D01*
X183686200Y-22041588D01*
X183593443Y-22306670D01*
X183593439Y-22306682D01*
X183530945Y-22580487D01*
X183530942Y-22580505D01*
X183499500Y-22859568D01*
X98500499Y-22859568D01*
X98469055Y-22580491D01*
X98406560Y-22306682D01*
X98313801Y-22041592D01*
X98191945Y-21788555D01*
X98042523Y-21550752D01*
X97867416Y-21331175D01*
X97668825Y-21132584D01*
X97449248Y-20957477D01*
X97211445Y-20808055D01*
X97211442Y-20808053D01*
X96958411Y-20686200D01*
X96693329Y-20593443D01*
X96693317Y-20593439D01*
X96419512Y-20530945D01*
X96419494Y-20530942D01*
X96140431Y-20499500D01*
X96140425Y-20499500D01*
X95859575Y-20499500D01*
X95859568Y-20499500D01*
X95580505Y-20530942D01*
X95580487Y-20530945D01*
X95306682Y-20593439D01*
X95306670Y-20593443D01*
X95041588Y-20686200D01*
X94788557Y-20808053D01*
X94550753Y-20957476D01*
X94331175Y-21132583D01*
X94132583Y-21331175D01*
X93957476Y-21550753D01*
X93808053Y-21788557D01*
X93686200Y-22041588D01*
X93593443Y-22306670D01*
X93593439Y-22306682D01*
X93530945Y-22580487D01*
X93530942Y-22580505D01*
X93499500Y-22859568D01*
X93000000Y-22859568D01*
X93000000Y-20124000D01*
X93019685Y-20056961D01*
X93072489Y-20011206D01*
X93124000Y-20000000D01*
X188876000Y-20000000D01*
X188943039Y-20019685D01*
G37*
%TD.AperFunction*%
%TD*%
M02*
